<?xml version="1.0" encoding="UTF-8"?>
<svg version="1.1" xmlns="http://www.w3.org/2000/svg" width="4500" height="4501">
<path d="M0 0 C52.14 0 104.28 0 158 0 C158.02205119 46.80415833 158.04051317 93.60831175 158.05106533 140.41247378 C158.05231602 145.93985883 158.05361034 151.46724387 158.05493164 156.99462891 C158.05519395 158.09501803 158.05545626 159.19540716 158.05572652 160.32914141 C158.06007619 178.13954999 158.06795989 195.94995534 158.0771528 213.760362 C158.08650885 232.03950033 158.09205975 250.31863698 158.09408849 268.59777761 C158.09545966 279.87426241 158.09978829 291.15073808 158.10791647 302.42722008 C158.113208 310.16302654 158.11479881 317.89882829 158.11350138 325.63463643 C158.11286177 330.09576631 158.11383285 334.55688024 158.11920547 339.01800728 C158.12409509 343.10807831 158.12430234 347.19812275 158.12089889 351.28819504 C158.12047865 352.76215437 158.12172726 354.2361154 158.12488318 355.71007141 C158.14198448 364.19558337 157.8700676 372.55665712 157 381 C157.86674119 380.99886084 157.86674119 380.99886084 158.7509923 380.99769866 C193.37646426 380.95245841 228.0019301 380.91838744 262.62742558 380.89786934 C266.83071867 380.89536939 271.03401169 380.8927806 275.23730469 380.89013672 C276.07373416 380.8896121 276.91016364 380.88908748 277.77193946 380.88854696 C291.12841765 380.87996017 304.48487774 380.86425894 317.84134537 380.84569441 C331.6549635 380.82666172 345.4685725 380.81581497 359.2822032 380.81182301 C366.99528641 380.80937887 374.70833238 380.80370366 382.42140198 380.78853989 C415.41303518 380.7257047 448.36973975 380.98927562 481.34960938 381.92626953 C482.46184362 381.95768941 482.46184362 381.95768941 483.59654725 381.98974404 C577.79814288 384.66501835 672.86712588 389.61229685 947 489 C947.87591797 489.82709473 947.87591797 489.82709473 948.76953125 490.67089844 C958.63016152 500.01773798 967.12706391 509.93114555 975 521 C975.67820801 521.95108643 975.67820801 521.95108643 976.37011719 522.92138672 C1027.47537707 595.34908724 1036.7244448 693.09916308 1043 792 C1043.04551942 792.80590804 1043.09103884 793.61181608 1043.13793764 794.44214557 C1044.08338316 811.66986968 1044.14854066 828.88619179 1044.14087028 846.13360014 C1044.14012845 850.30001058 1044.14518685 854.46641509 1044.1494453 858.63282287 C1044.15696541 866.86699413 1044.15921528 875.1011589 1044.15977435 883.33533324 C1044.16069402 893.21172983 1044.16737941 903.08812055 1044.17412117 912.96451459 C1044.19012473 936.83040864 1044.19607877 960.69630201 1044.20086992 984.56220047 C1044.20321233 995.87446366 1044.20681575 1007.18672636 1044.2105653 1018.49898916 C1044.22339806 1057.29504147 1044.23411569 1096.09109352 1044.2375679 1134.8871479 C1044.23778953 1137.31926977 1044.23801131 1139.75139164 1044.23823325 1142.18351351 C1044.23845389 1144.62120211 1044.23867437 1147.0588907 1044.2388947 1149.49657929 C1044.23933723 1154.38622864 1044.23978435 1159.27587799 1044.24023438 1164.16552734 C1044.24034377 1165.37786174 1044.24045316 1166.59019613 1044.24056586 1167.83926793 C1044.24419076 1207.08659175 1044.26009078 1246.33389703 1044.28342474 1285.58121375 C1044.30810395 1327.16804493 1044.32174455 1368.75486554 1044.32293582 1410.34170425 C1044.32310724 1414.92041834 1044.32332266 1419.49913244 1044.32357025 1424.07784653 C1044.32362602 1425.20508699 1044.32368179 1426.33232746 1044.32373925 1427.49372673 C1044.3248829 1445.51983697 1044.33584623 1463.54592797 1044.35045731 1481.57203175 C1044.36493129 1499.7455143 1044.3679986 1517.91897259 1044.36001733 1536.09245934 C1044.35599415 1545.90959914 1044.35655606 1555.72668032 1044.37107468 1565.5438118 C1044.49137582 1650.72007424 1041.82238729 1736.43805382 998 1881 C997.58588867 1881.85658203 997.17177734 1882.71316406 996.74511719 1883.59570312 C984.8507887 1908.00538378 969.75864132 1930.62714316 951.27734375 1950.5390625 C949.24097846 1952.73959446 947.26738147 1954.97728703 945.3125 1957.25 C939.68493257 1963.70592432 933.54527532 1969.48659189 927 1975 C926.46262207 1975.45648926 925.92524414 1975.91297852 925.37158203 1976.38330078 C915.0866295 1985.08252896 904.39100018 1992.81475167 893 2000 C892.33484375 2000.42345703 891.6696875 2000.84691406 890.984375 2001.28320312 C870.48789838 2014.21647987 848.32591693 2023.69431288 825.50901794 2031.67724609 C819.82935336 2033.67634227 814.20588401 2035.81058519 808.58203125 2037.9609375 C786.84890562 2046.2184669 765.49034091 2052.97862863 742.62817383 2057.29248047 C740.19845935 2057.76629196 737.78085963 2058.30678992 735.38022137 2058.91089725 C678.64942583 2071.48094863 616.79158918 2069.90638875 558.87573242 2070.02172852 C557.71059979 2070.02409442 557.71059979 2070.02409442 556.52192912 2070.02650813 C535.97057247 2070.0651579 515.41967187 2070.01115517 494.86847917 2069.93184185 C482.6700107 2069.88555903 470.47164751 2069.86233529 458.27309608 2069.85389519 C457.3941632 2069.85327653 456.51523031 2069.85265787 455.60966309 2069.85202047 C451.14227936 2069.84897361 446.67489548 2069.84626185 442.20751146 2069.84367859 C410.92835131 2069.82499676 379.64940293 2069.76499815 348.37036133 2069.67895508 C318.06763778 2069.59569662 287.7649736 2069.5323948 257.4621582 2069.49438477 C255.54183831 2069.491949 253.62151841 2069.48951265 251.70119852 2069.48707575 C236.08664136 2069.46736399 220.47208263 2069.44898583 204.85752348 2069.4309294 C133.23814793 2069.34715803 61.61932844 2069.16634167 -10 2069 C-10 1944.59 -10 1820.18 -10 1692 C-5.71 1690.02 -1.42 1688.04 3 1686 C48.34017363 1665.02781151 92.65637248 1635.44057061 123.85546875 1595.7109375 C125.90410604 1593.12122114 128.02442799 1590.61771779 130.17895508 1588.11669922 C134.71146014 1582.8533918 138.90619721 1577.52632047 142.7578125 1571.73046875 C143.37269531 1570.87388672 143.37269531 1570.87388672 144 1570 C144.33 1570 144.66 1570 145 1570 C146.2988358 1585.9334803 146.22078811 1601.90697955 146.30332303 1617.88138676 C146.32126918 1621.23755868 146.34222197 1624.59370952 146.36312145 1627.94986415 C146.41363385 1636.06323586 146.45966804 1644.17662437 146.50268555 1652.29003906 C146.54014136 1659.34605949 146.58141214 1666.40203968 146.62768555 1673.45800781 C147.15214366 1753.63774201 147.04474187 1833.81900546 147 1914 C192.27491317 1913.97301197 237.54982156 1913.94115398 282.82470703 1913.88336182 C283.49757379 1913.88250431 284.17044054 1913.8816468 284.8636972 1913.8807633 C299.49603885 1913.86208639 314.1283792 1913.84253268 328.76071846 1913.82207905 C335.93911157 1913.81205014 343.11750493 1913.80221446 350.29589844 1913.79248047 C351.36725505 1913.79102276 351.36725505 1913.79102276 352.46025524 1913.7895356 C375.50261597 1913.7582739 398.5449651 1913.73970687 421.58734334 1913.72790753 C445.31788262 1913.71568741 469.04837368 1913.6902922 492.77888086 1913.64892386 C496.15064204 1913.643052 499.52240346 1913.63732675 502.89416504 1913.63169098 C503.55760727 1913.63057752 504.22104949 1913.62946406 504.90459603 1913.62831686 C516.12040746 1913.60988987 527.33618726 1913.60726114 538.55201209 1913.60857043 C548.59663906 1913.60860055 558.64117994 1913.59368473 568.68577325 1913.56783572 C574.45163233 1913.55341363 580.21731502 1913.54478808 585.98318863 1913.55419731 C713.26234152 1914.29431913 713.26234152 1914.29431913 826 1864 C826.66902344 1863.41089844 827.33804688 1862.82179688 828.02734375 1862.21484375 C878.31976902 1815.30844315 883.3723993 1732.36782499 887.1875 1668.375 C887.25928467 1667.17182129 887.33106934 1665.96864258 887.4050293 1664.72900391 C888.75066678 1639.85192017 889.15216596 1614.97563979 889.13466892 1590.06773304 C889.13299942 1586.07321877 889.13720613 1582.07870924 889.14057809 1578.08419663 C889.14567627 1571.11746649 889.14715916 1564.15074328 889.14612198 1557.18401146 C889.14458328 1546.8226396 889.14878894 1536.46127529 889.1539966 1526.09990491 C889.16362045 1506.5065738 889.16647899 1486.91324533 889.16705366 1467.31991213 C889.16751492 1452.17564168 889.16958215 1437.03137225 889.17275429 1421.88710213 C889.17365197 1417.51247551 889.17454178 1413.13784889 889.17542917 1408.76322228 C889.17576074 1407.13144698 889.17576074 1407.13144698 889.17609901 1405.46670653 C889.18224527 1374.90560972 889.18620038 1344.34451325 889.18575573 1313.78341579 C889.18574015 1312.63337703 889.18572457 1311.48333827 889.18570852 1310.29844986 C889.18562543 1304.47088057 889.18552639 1298.64331129 889.18542381 1292.81574201 C889.18540387 1291.65857198 889.18538392 1290.50140196 889.18536337 1289.30916617 C889.18532294 1286.96908956 889.18528114 1284.62901295 889.18523798 1282.28893634 C889.18462573 1245.91112608 889.1921258 1209.53332516 889.20581055 1173.15551758 C889.22121524 1132.18973076 889.22977413 1091.22395007 889.22884732 1050.25816017 C889.22877271 1045.87881823 889.22872399 1041.49947629 889.22869301 1037.12013435 C889.22868135 1036.0420042 889.2286697 1034.96387404 889.22865769 1033.85307327 C889.22862709 1016.60336577 889.23497637 999.35366647 889.24362527 982.1039614 C889.25215701 964.72692669 889.25304895 947.3499038 889.24651595 929.97286814 C889.24317522 920.58388361 889.24289924 911.19492601 889.2518692 901.80594444 C889.29704194 852.08743389 888.88944989 802.52731799 884 753 C883.9318811 752.30724976 883.86376221 751.61449951 883.7935791 750.90075684 C880.6086826 718.88436372 875.46072522 686.79744951 866 656 C865.73783691 655.13391113 865.47567383 654.26782227 865.20556641 653.37548828 C856.28503273 624.45776576 841.91761691 592.78672974 813.91992188 577.98291016 C791.16549087 566.33370629 766.92673369 559.33344882 742 554 C740.98373535 553.7824707 739.9674707 553.56494141 738.92041016 553.34082031 C685.74519207 542.2265692 630.71653685 539.35893766 576.53603184 539.45119452 C570.86748893 539.45628301 565.19900557 539.43788268 559.53048706 539.42277527 C549.78037643 539.3998 540.03033943 539.39069943 530.28020287 539.39188385 C516.18432315 539.39357478 502.08853975 539.37300169 487.99268607 539.34752855 C465.10588325 539.30674962 442.21910841 539.28317809 419.33227539 539.27099609 C397.14085196 539.25914198 374.94946148 539.23885728 352.75805664 539.20751953 C352.07029153 539.20655158 351.38252642 539.20558363 350.67391994 539.20458635 C343.7651586 539.19485395 336.85639751 539.18495404 329.94763659 539.17493158 C272.29844176 539.0913162 214.64924366 539.03571453 157 539 C157.00034567 539.57513458 157.00069134 540.15026916 157.00104749 540.74283206 C157.04160134 609.40828263 157.06015853 678.07224728 156.65645218 746.73680115 C156.6235872 752.33661327 156.59226813 757.93643363 156.56100464 763.53625488 C155.89617499 882.09203882 155.06830001 1000.65040174 150 1345 C149.98043495 1345.74222809 149.9608699 1346.48445618 149.94071198 1347.24917603 C147.8704468 1425.26287331 136.15887804 1495.88896103 87 1559 C86.26394531 1559.95132813 85.52789063 1560.90265625 84.76953125 1561.8828125 C70.87447871 1579.34938887 54.7476524 1595.09829962 36.93847656 1608.53271484 C34.87187557 1610.09698084 32.82347957 1611.68364092 30.7734375 1613.26953125 C-38.24882176 1666.03364637 -126.98246077 1689.75156861 -274.75 1707.75 C-275.95597336 1707.83888489 -275.95597336 1707.83888489 -277.18630981 1707.92956543 C-282.78829719 1708.33471129 -288.39230779 1708.68406309 -294 1709 C-295.25689636 1709.0725853 -295.25689636 1709.0725853 -296.53918457 1709.14663696 C-316.76187136 1710.27129821 -337.00323223 1710.20097165 -357.25 1710.1875 C-358.14840229 1710.18723312 -359.04680458 1710.18696625 -359.97243118 1710.18669128 C-386.83704253 1710.17667837 -413.64359968 1710.02932199 -440.45568848 1708.17388916 C-443.09075996 1707.99379708 -445.72638532 1707.82491029 -448.36230469 1707.65771484 C-475.96316374 1705.88084464 -503.43370075 1702.96942681 -530.90990829 1699.85588455 C-533.44964436 1699.56820388 -535.98954196 1699.28198164 -538.52944946 1698.99581909 C-596.21112786 1692.47657126 -596.21112786 1692.47657126 -623.25 1686.6875 C-624.27207047 1686.47197983 -624.27207047 1686.47197983 -625.31478882 1686.25210571 C-657.54086651 1679.44165547 -689.29305103 1670.41406197 -719 1656 C-720.04752441 1655.50185791 -720.04752441 1655.50185791 -721.11621094 1654.99365234 C-743.01902039 1644.57090038 -763.30329847 1631.67964972 -781 1615 C-782.26786437 1613.93395894 -783.53866927 1612.87140456 -784.8125 1611.8125 C-835.48261289 1567.3614553 -853.16112657 1498.27810951 -857.58981323 1433.67098999 C-858.36324471 1420.73715976 -858.23338659 1407.78539945 -858.16985631 1394.8345263 C-858.15320916 1390.91518597 -858.149465 1386.99583118 -858.14439392 1383.07646179 C-858.13313509 1375.66393073 -858.11251302 1368.25146284 -858.08749622 1360.83896655 C-858.04293454 1347.6231841 -858.00954166 1334.40738292 -857.98725218 1321.19154423 C-857.97905668 1316.58874704 -857.96510279 1311.98601766 -857.94641227 1307.38325185 C-857.84372524 1280.63533932 -858.23913007 1253.9171004 -860.5 1227.25 C-860.63222699 1225.6185475 -860.7637332 1223.98703643 -860.89453125 1222.35546875 C-861.18995894 1218.69200017 -861.49270798 1215.02922562 -861.80102539 1211.36682129 C-862.20360285 1206.57812533 -862.60119875 1201.78901169 -863 1197 C-828.89726061 1192.45548392 -794.77788465 1188.04499508 -760.64282227 1183.75015259 C-756.67509372 1183.25085969 -752.70766672 1182.74926487 -748.74047852 1182.24569702 C-744.01109171 1181.64558682 -739.28110047 1181.05048484 -734.55060768 1180.45915794 C-732.79534775 1180.23897833 -731.04029414 1180.01714674 -729.28546715 1179.79354286 C-726.86363893 1179.48530998 -724.44110881 1179.18331173 -722.01831055 1178.8828125 C-721.31991562 1178.79250606 -720.62152069 1178.70219961 -719.90196228 1178.60915661 C-715.22533796 1178.0381011 -710.70044887 1177.92587549 -706 1178 C-704.34979169 1190.74860331 -702.85692057 1203.49330424 -701.875 1216.3125 C-701.76212646 1217.77308838 -701.76212646 1217.77308838 -701.64697266 1219.26318359 C-701.4100118 1222.5076836 -701.20439917 1225.75327674 -701 1229 C-700.91469025 1230.27481735 -700.82938049 1231.5496347 -700.7414856 1232.86308289 C-699.77557522 1248.56343153 -699.88618641 1264.26938471 -699.93153763 1279.99130058 C-699.94169271 1283.99797937 -699.94506387 1288.00466363 -699.94897461 1292.01135254 C-699.96090295 1303.0309486 -699.98289376 1314.05051978 -700.00520325 1325.07009888 C-700.02555904 1335.16741391 -700.04359318 1345.26472 -700.05341816 1355.36205149 C-700.05751352 1359.3220042 -700.06366401 1363.2819284 -700.07516479 1367.24186707 C-700.35619058 1403.18785987 -700.35619058 1403.18785987 -697.75 1439 C-697.62069092 1440.10190674 -697.49138184 1441.20381348 -697.3581543 1442.33911133 C-694.57808534 1464.39261985 -689.10081004 1485.24609765 -671.51171875 1500.1015625 C-627.07991677 1534.19885646 -560.60325393 1536.76061603 -507.2913208 1542.63543701 C-504.30019937 1542.96674843 -501.30984632 1543.30394958 -498.31982422 1543.64501953 C-480.21710134 1545.70974537 -462.11181019 1547.38725853 -443.9375 1548.6875 C-443.08461395 1548.74852905 -442.23172791 1548.80955811 -441.35299683 1548.87243652 C-421.86970357 1550.24842413 -402.42838182 1551.15972898 -382.89453125 1551.16796875 C-381.03301471 1551.1712022 -379.17149839 1551.1745676 -377.3099823 1551.17805481 C-373.43524592 1551.18397988 -369.5605316 1551.18590185 -365.68579102 1551.18530273 C-361.79349069 1551.18522191 -357.90130917 1551.19210622 -354.0090332 1551.20581055 C-329.59493292 1551.29034399 -305.34762792 1550.87299353 -281 1549 C-280.00159088 1548.92429779 -279.00318176 1548.84859558 -277.97451782 1548.77059937 C-272.39159538 1548.33658533 -266.82008966 1547.82467748 -261.25 1547.25 C-260.0346759 1547.12694489 -260.0346759 1547.12694489 -258.7947998 1547.00140381 C-182.31398287 1539.1752801 -91.76364077 1522.32343043 -38.37109375 1461.92578125 C-16.38512121 1434.79646752 -10.52731385 1402.38887911 -9.53515625 1368.390625 C-9.4788932 1366.55849205 -9.4788932 1366.55849205 -9.42149353 1364.68934631 C-9.29682697 1360.54302586 -9.17848938 1356.39657005 -9.0625 1352.25 C-9.04155273 1351.50702541 -9.02060547 1350.76405083 -8.99902344 1349.99856186 C-6.38886869 1257.16831585 -5.5026554 1164.29455654 -3.04176873 896.44222713 C-3.0086754 891.31690887 -2.97486773 886.19159561 -2.94073486 881.06628418 C-2.57671634 826.37778301 -2.27070731 771.68904053 -2 717 C-1.99226563 715.44164948 -1.99226563 715.44164948 -1.984375 713.85181713 C-1.49576431 615.35706871 -1.13471541 516.86186291 -0.12693787 63.56921387 C-0.1248895 62.55261309 -0.12284114 61.53601231 -0.12073071 60.48860544 C-0.08013304 40.32573766 -0.04013089 20.16286871 0 0 Z " fill="#FFFFFF" transform="translate(2269,518)"/>
<path d="M0 0 C5.1731342 0.00442612 10.34626765 0.00284971 15.51940322 0.00209773 C24.42718857 0.00157999 33.33496645 0.00464698 42.24274993 0.01033556 C55.12101254 0.01855426 67.99927163 0.02107625 80.87753658 0.02232356 C101.78496543 0.02449803 122.69239033 0.03111402 143.59981704 0.04062617 C163.87781163 0.04984221 184.15580514 0.05690239 204.43380141 0.06113398 C205.68925315 0.0613967 206.94470489 0.06165943 208.23820062 0.06193011 C214.53808018 0.0632354 220.83795975 0.06449905 227.13783932 0.06574202 C279.18490182 0.07606454 331.23195697 0.0944754 383.27901626 0.11606562 C383.27901626 52.25606562 383.27901626 104.39606562 383.27901626 158.11606562 C365.28467055 158.12541132 347.29032485 158.13475703 328.75069594 158.14438593 C316.72577294 158.15121412 304.70085024 158.1581097 292.67592788 158.16593134 C291.91161696 158.16642654 291.14730603 158.16692174 290.35983418 158.16743194 C264.57867822 158.18420655 238.79752994 158.20643308 213.01638198 158.2327038 C212.17348921 158.23356131 211.33059644 158.23441882 210.46216146 158.23530232 C192.1342748 158.25397737 173.80638917 158.27353088 155.4785044 158.29398657 C146.48769213 158.30401585 137.49687964 158.31385146 128.50606704 158.32358515 C127.16418103 158.32504286 127.16418103 158.32504286 125.79518621 158.32653002 C96.91206526 158.35781569 68.02895359 158.37636613 39.14581865 158.38815809 C9.41076675 158.40036626 -20.32424658 158.42573018 -50.05927279 158.46714176 C-54.28005402 158.47301399 -58.50083543 158.47873917 -62.72161698 158.48437464 C-63.9674176 158.48604483 -63.9674176 158.48604483 -65.2383859 158.48774876 C-78.49126278 158.50514095 -91.74410946 158.5090739 -104.99699623 158.50769483 C-118.39113093 158.50659845 -131.78519011 158.52034312 -145.17929623 158.5482299 C-152.40787844 158.56289279 -159.63633145 158.57167342 -166.86492562 158.56186831 C-306.79988275 156.18139967 -306.79988275 156.18139967 -429.90848374 210.74106562 C-477.94446951 261.18662349 -480.93432942 349.59318827 -484.84598374 415.55356562 C-484.95946153 417.43906123 -484.95946153 417.43906123 -485.07523179 419.36264765 C-486.50500676 445.41524784 -486.87475387 471.50479519 -486.8494513 497.59126187 C-486.84685051 501.46513626 -486.85019909 505.33900713 -486.85269463 509.21288097 C-486.85626233 515.96290698 -486.85622438 522.71292495 -486.85364747 529.4629513 C-486.84982573 539.50160984 -486.85181884 549.54026174 -486.85485578 559.57892024 C-486.86009264 577.52114779 -486.85967667 595.46337176 -486.85677687 613.40559965 C-486.85425143 629.11058456 -486.85360918 644.81556816 -486.85479951 660.52055323 C-486.85487589 661.5663249 -486.85495228 662.61209656 -486.85503098 663.68955828 C-486.85534237 667.9357864 -486.85566078 672.18201452 -486.85599074 676.42824264 C-486.85904326 716.1851963 -486.85628676 755.94214769 -486.85089385 795.69910099 C-486.84615037 830.93607219 -486.84657245 866.17303977 -486.85135484 901.41001093 C-486.85672274 941.09282395 -486.8588253 980.77563496 -486.85574257 1020.45844829 C-486.85542191 1024.69773718 -486.85510906 1028.93702606 -486.85479951 1033.17631495 C-486.85472043 1034.21996623 -486.85464135 1035.26361751 -486.85455988 1036.33889458 C-486.85342773 1052.02214394 -486.85474271 1067.70539184 -486.85727906 1083.388641 C-486.86015252 1101.24426331 -486.85939355 1119.09988151 -486.85399832 1136.95550331 C-486.85134019 1146.04984615 -486.85020821 1155.14418228 -486.85364747 1164.23852503 C-486.95314584 1227.23905805 -486.95314584 1227.23905805 -484.40848374 1290.17856562 C-484.34473557 1291.21749964 -484.28098741 1292.25643366 -484.21530747 1293.32685053 C-480.14533908 1358.9614599 -472.64570382 1436.16904749 -422.40848374 1484.49106562 C-416.37607995 1489.71914891 -409.78469057 1493.50764086 -402.72098374 1497.11606562 C-401.60465562 1497.70001093 -400.48832749 1498.28395625 -399.33817124 1498.88559687 C-360.56385249 1518.09926936 -314.59995369 1523.86635074 -272.03348374 1528.36606562 C-271.30415635 1528.44328852 -270.57482896 1528.52051142 -269.82340074 1528.60007441 C-264.46040374 1529.15875165 -259.09242482 1529.64630897 -253.72098374 1530.11606562 C-252.76988537 1530.19930423 -251.81878699 1530.28254283 -250.83886745 1530.36830382 C-233.97015378 1531.81021036 -217.24145426 1532.41006673 -200.31615281 1532.39453852 C-197.77672031 1532.39955703 -195.2372894 1532.40543729 -192.69786066 1532.41209126 C-187.23304101 1532.42447794 -181.76826725 1532.43093929 -176.30343461 1532.43185198 C-168.17777118 1532.43324282 -160.05215248 1532.44611387 -151.92650424 1532.46113973 C-138.24992732 1532.48611488 -124.57335426 1532.5020736 -110.89675927 1532.51272166 C-97.37392247 1532.52328009 -83.8511002 1532.53795154 -70.32827401 1532.55800211 C-69.48445845 1532.55925098 -68.64064288 1532.56049985 -67.77125715 1532.56178656 C-63.48517155 1532.56815115 -59.19908606 1532.57458813 -54.91300061 1532.58105294 C-24.63000842 1532.62659976 5.65298849 1532.66309677 35.93599868 1532.69419062 C65.33802394 1532.72440081 94.74003962 1532.75876066 124.14205337 1532.79868281 C125.04987627 1532.79991381 125.95769917 1532.80114482 126.89303185 1532.80241312 C136.01055617 1532.81478099 145.12808038 1532.82723263 154.24560451 1532.8397456 C172.81564512 1532.8652294 191.38568647 1532.89015446 209.95572829 1532.91474116 C211.23619041 1532.91643752 211.23619041 1532.91643752 212.54252046 1532.91816816 C238.68414982 1532.95277134 264.82578135 1532.98500854 290.96741652 1533.01489985 C291.70896133 1533.01574868 292.45050614 1533.01659752 293.21452201 1533.01747207 C323.23601847 1533.05180117 353.25751771 1533.08361779 383.27901626 1533.11606562 C383.27901626 1584.26606562 383.27901626 1635.41606562 383.27901626 1688.11606562 C314.25830838 1688.29724266 314.25830838 1688.29724266 292.83986831 1688.34691584 C291.69412237 1688.34957985 291.69412237 1688.34957985 290.52523005 1688.35229767 C264.69909543 1688.412181 238.87295348 1688.45932749 213.04677749 1688.49715388 C212.20064329 1688.49839639 211.3545091 1688.49963891 210.48273448 1688.50091907 C192.07328036 1688.52788456 173.66382401 1688.55281196 155.25436433 1688.57565359 C146.22026343 1688.58687504 137.18616315 1688.59854465 128.15206313 1688.61045039 C126.80389593 1688.61221563 126.80389593 1688.61221563 125.42849302 1688.61401654 C96.54128012 1688.65204909 67.6542306 1688.71940392 38.76711581 1688.80274061 C8.9652525 1688.88855566 -20.83652126 1688.94324393 -50.63850597 1688.96130053 C-54.89308263 1688.96389216 -59.14765899 1688.96682284 -63.40223527 1688.96996081 C-64.23921476 1688.97056762 -65.07619425 1688.97117442 -65.93853676 1688.97179962 C-77.54099015 1688.98096427 -89.14322207 1689.01080924 -100.74558172 1689.05779471 C-223.21993373 1689.55322408 -223.21993373 1689.55322408 -282.98367906 1684.12363398 C-283.98061325 1684.03509581 -284.97754745 1683.94655764 -286.00469178 1683.8553365 C-307.47352524 1681.94151933 -328.58979995 1679.09114271 -349.70456529 1674.7249676 C-351.01055074 1674.45807728 -351.01055074 1674.45807728 -352.34291974 1674.18579524 C-370.18901274 1670.48797262 -387.0531777 1664.49544091 -404.0163939 1657.9212414 C-408.73309246 1656.09994196 -413.47840826 1654.36375402 -418.23270249 1652.64340937 C-433.65965859 1647.04806456 -448.97439987 1641.35804336 -463.72098374 1634.11606562 C-464.47057359 1633.75545039 -465.22016343 1633.39483515 -465.99246812 1633.02329218 C-501.91253834 1615.61072639 -536.72340547 1588.18325209 -560.72098374 1556.11606562 C-561.22371812 1555.46267207 -561.72645249 1554.80927851 -562.24442124 1554.13608515 C-571.34245108 1542.3102186 -579.38300067 1530.10385345 -586.72098374 1517.11606562 C-587.15362535 1516.3592248 -587.58626695 1515.60238398 -588.0320189 1514.82260859 C-622.13788575 1454.66892642 -632.08519575 1381.41557515 -637.90848374 1313.42856562 C-637.98738847 1312.52801447 -638.06629319 1311.62746333 -638.14758897 1310.69962275 C-638.76808733 1303.51091621 -639.25467 1296.31624539 -639.72098374 1289.11606562 C-639.80526392 1287.84361546 -639.88954409 1286.57116529 -639.9763782 1285.26015604 C-642.30647133 1249.07981067 -642.01032322 1212.84678573 -641.98431985 1176.6110804 C-641.97779988 1166.93967261 -641.98319416 1157.26827915 -641.98872781 1147.59687203 C-641.99918481 1128.65492448 -641.99837646 1109.71299053 -641.99256999 1090.77104172 C-641.98751362 1074.19210776 -641.98623714 1057.61317875 -641.98861527 1041.03424418 C-641.98876804 1039.92910779 -641.98892081 1038.82397139 -641.98907821 1037.68534602 C-641.98970102 1033.19779273 -641.99033784 1028.71023945 -641.99099774 1024.22268617 C-641.99709871 982.23210245 -641.99159611 940.24152733 -641.98080395 898.25094493 C-641.97131597 861.05217196 -641.97216287 823.85341269 -641.98172593 786.65463984 C-641.99246626 744.73766424 -641.9966645 702.82069621 -641.9905014 660.90371943 C-641.98986009 656.42431915 -641.98923441 651.94491887 -641.98861527 647.46551859 C-641.98845712 646.36279916 -641.98829896 645.26007972 -641.98813602 644.12394455 C-641.98587372 627.5683389 -641.98849786 611.01273877 -641.99357438 594.45713389 C-641.99932639 575.60609942 -641.99779264 556.75508054 -641.98701289 537.90404798 C-641.98170371 528.3065029 -641.97941889 518.70898318 -641.9863112 509.11143839 C-642.03704281 433.76944632 -642.03704281 433.76944632 -639.72098374 397.11606562 C-639.63891285 395.80383029 -639.55684196 394.49159495 -639.47228408 393.13959491 C-639.02716847 386.18666762 -638.50871224 379.2447658 -637.90848374 372.30356562 C-637.82450334 371.30730158 -637.74052293 370.31103755 -637.65399766 369.28458369 C-633.08158686 315.32643384 -625.04728045 261.58273874 -607.72098374 210.11606562 C-607.36810288 209.06725214 -607.01522202 208.01843867 -606.65164781 206.93784297 C-599.335574 185.5725892 -589.7903667 164.60811798 -576.72098374 146.11606562 C-576.05711656 145.16215937 -575.39324937 144.20825312 -574.70926499 143.22544062 C-561.44565296 124.56778597 -545.84987952 107.15361527 -527.72098374 93.11606562 C-527.15460191 92.66795527 -526.58822007 92.21984492 -526.00467515 91.75815547 C-515.15690822 83.18955047 -503.74648489 75.91931847 -491.72098374 69.11606562 C-490.94384019 68.67520625 -490.16669663 68.23434687 -489.36600327 67.78012812 C-412.43346694 24.61288138 -316.49159046 16.50992853 -119.34598374 2.49106562 C-118.58376512 2.45946093 -117.82154649 2.42785624 -117.03623033 2.39529383 C-116.2876677 2.36427828 -115.53910508 2.33326273 -114.76785874 2.30130732 C-114.11833238 2.27435156 -113.46880601 2.24739581 -112.79959702 2.21962321 C-75.20286019 0.694114 -37.62727701 -0.04063875 0 0 Z " fill="#FFFFFF" transform="translate(1828.7209837436676,898.883934378624)"/>
<path d="M0 0 C522.72 0 1045.44 0 1584 0 C1584 44.55 1584 89.1 1584 135 C1061.28 135 538.56 135 0 135 C0 90.45 0 45.9 0 0 Z " fill="#FFFFFF" transform="translate(1458,2698)"/>
<path d="M0 0 C14.85 0 29.7 0 45 0 C57.01341799 15.44582313 67.08995199 31.55277264 76.5 48.67578125 C79.89415419 54.84757335 83.42798254 60.92986264 87 67 C92.37294345 76.14854559 97.59077911 85.37405621 102.75 94.64453125 C106.74964452 101.81353695 110.84348044 108.92092763 115 116 C119.76429563 124.11419099 124.42411851 132.27809188 129 140.5 C134.09830924 149.65723315 139.31308055 158.7369317 144.61376953 167.77832031 C149.08279118 175.40799465 153.49311147 183.0700588 157.875 190.75 C158.37105743 191.61899933 158.37105743 191.61899933 158.87713623 192.5055542 C162.3279057 198.55117131 165.77315375 204.59991398 169.21340942 210.65151978 C170.63326237 213.14821639 172.05483136 215.64393369 173.47662354 218.13952637 C174.459932 219.8671044 175.44071344 221.59612003 176.42138672 223.32519531 C180.78726121 230.98868621 185.33505512 238.51601238 190 246 C197.12077539 233.89926111 204.17272039 221.76913143 211 209.5 C216.13626659 200.2706588 221.40212563 191.12762979 226.75 182.01953125 C230.92244156 174.89471475 234.98481022 167.71446163 239 160.5 C244.09830924 151.34276685 249.31308055 142.2630683 254.61376953 133.22167969 C259.08278735 125.5920119 263.49361631 117.93022514 267.875 110.25 C268.37504547 109.3735231 268.37504547 109.3735231 268.88519287 108.4793396 C270.5800349 105.5080802 272.27407984 102.53636728 273.96777344 99.56445312 C275.97873996 96.03639938 277.99276211 92.51009753 280.0078125 88.984375 C280.33759094 88.40736343 280.66736938 87.83035187 281.00714111 87.2358551 C282.33581302 84.91124767 283.66461189 82.58671283 284.9934082 80.26217651 C288.73614641 73.71457029 292.47644669 67.16559552 296.2109375 60.61328125 C299.55809549 54.74103926 302.91326381 48.87345415 306.27539062 43.00976562 C307.33343294 41.16328408 308.38981378 39.3158478 309.44335938 37.46679688 C316.03037483 25.91709807 323.28340552 14.87823627 330.76000977 3.88500977 C332.03663913 2.02499485 332.03663913 2.02499485 333 0 C348.18 0 363.36 0 379 0 C379 183.48 379 366.96 379 556 C363.16 556 347.32 556 331 556 C330.505 331.765 330.505 331.765 330 103 C325.71 110.59 321.42 118.18 317 126 C314.74028605 129.90356804 312.47633264 133.80141911 310.1875 137.6875 C305.0903243 146.38527381 300.0557415 155.11724958 295.0625 163.875 C288.03417892 176.2003733 280.95759481 188.49722214 273.85888672 200.78222656 C270.73675395 206.18670645 267.61858796 211.59347412 264.5 217 C263.25001878 219.1666775 262.00001879 221.33334417 260.75 223.5 C260.13125 224.5725 259.5125 225.645 258.875 226.75 C257 230 255.125 233.25 253.25 236.5 C252.63108887 237.57282227 252.01217773 238.64564453 251.37451172 239.75097656 C250.12628966 241.91447476 248.87791761 244.07788643 247.62939453 246.24121094 C244.47594744 251.70565017 241.32523904 257.17163645 238.1796875 262.640625 C232.04089825 273.30855676 225.87714476 283.96050697 219.625 294.5625 C219.07118652 295.50319336 218.51737305 296.44388672 217.94677734 297.41308594 C217.1880835 298.69554199 217.1880835 298.69554199 216.4140625 300.00390625 C215.9701416 300.75486572 215.5262207 301.5058252 215.06884766 302.27954102 C214 304 214 304 213 305 C211.52645652 305.09304018 210.04849409 305.11746265 208.57202148 305.11352539 C207.63112167 305.11344986 206.69022186 305.11337433 205.72080994 305.11329651 C204.69790359 305.10813522 203.67499725 305.10297394 202.62109375 305.09765625 C201.058395 305.09553383 201.058395 305.09553383 199.46412659 305.09336853 C196.12188906 305.0877508 192.77971743 305.0751953 189.4375 305.0625 C187.17773534 305.05748728 184.91796963 305.05292398 182.65820312 305.04882812 C177.10544609 305.03777561 171.55272775 305.02102024 166 305 C165.58862793 304.27748047 165.17725586 303.55496094 164.75341797 302.81054688 C157.55589999 290.17548066 150.34813002 277.54829585 143 265 C137.9680751 256.40484283 132.99610865 247.77687759 128.0625 239.125 C121.03396493 226.79974804 113.95759566 214.50277933 106.85888672 202.21777344 C103.73675395 196.81329355 100.61858796 191.40652588 97.5 186 C96.25001878 183.8333225 95.00001879 181.66665583 93.75 179.5 C86.25 166.5 86.25 166.5 84.3737793 163.24780273 C83.1279423 161.08840605 81.88201182 158.92906331 80.63598633 156.76977539 C77.44651047 151.24232403 74.25883115 145.71384879 71.07421875 140.18359375 C70.09775391 138.48879883 70.09775391 138.48879883 69.1015625 136.75976562 C67.88349096 134.64554146 66.6659806 132.53099381 65.44921875 130.41601562 C60.35508728 121.57653976 55.17353318 112.79500641 50 104 C49.67 253.16 49.34 402.32 49 556 C32.83 556 16.66 556 0 556 C0 372.52 0 189.04 0 0 Z " fill="#FFFFFF" transform="translate(758,3144)"/>
<path d="M0 0 C304.94304858 0 304.94304858 0 339 34 C339.77085937 34.75925781 340.54171875 35.51851562 341.3359375 36.30078125 C359.91897981 55.67661547 365.89697165 82.86696882 369.25 108.625 C369.41322754 109.87410156 369.57645508 111.12320313 369.74462891 112.41015625 C372.02849393 131.1091491 372.14956381 149.76957785 372.14526367 168.58374023 C372.1482618 171.22235752 372.15163854 173.86097201 372.15544128 176.49958801 C372.16368098 182.88300163 372.16649308 189.266406 372.16705366 195.64982449 C372.1675321 200.84986969 372.16960298 206.04991189 372.17275429 211.24995613 C372.1815432 226.05864581 372.18617652 240.86732831 372.18542381 255.67602061 C372.18536388 256.86880862 372.18536388 256.86880862 372.18530273 258.08569336 C372.18526185 258.88187917 372.18522097 259.67806498 372.18517885 260.49837763 C372.18477305 273.3797259 372.19433066 286.26104484 372.2084411 299.14238464 C372.22288278 312.43316278 372.22970701 325.7239267 372.22884732 339.01471287 C372.22851799 346.45054527 372.23114754 353.88634693 372.24202538 361.32217216 C372.25123381 367.65642289 372.25322252 373.99062897 372.24651595 380.32488357 C372.24330169 383.54248732 372.24414077 386.75999024 372.2518692 389.97758865 C372.34786992 432.77101884 371.35336338 482.86952062 342 517 C340.83791016 518.45986328 340.83791016 518.45986328 339.65234375 519.94921875 C324.56509199 538.01783518 300.71044935 544.82094505 279 551 C278.01563965 551.28278809 277.0312793 551.56557617 276.01708984 551.85693359 C186.95025687 574.96655703 92.01606073 556 0 556 C0 372.52 0 189.04 0 0 Z M51 51 C51 200.49 51 349.98 51 504 C161.4651726 517.32562098 161.4651726 517.32562098 299.4375 487.95703125 C313.52191999 473.75365501 318.22017508 453.26246392 320 434 C320.0832166 433.17109725 320.1664332 432.3421945 320.25217152 431.48817348 C321.3608606 418.64518553 321.14807526 405.76874834 321.14526367 392.88891602 C321.14771944 390.14587776 321.15163538 387.40284197 321.15544128 384.6598053 C321.1637036 378.00714017 321.16649414 371.3544839 321.16705366 364.70181406 C321.16753106 359.285201 321.16959689 353.86859083 321.17275429 348.45197868 C321.18154983 333.04601853 321.18617554 317.6400653 321.18542381 302.23410261 C321.18538386 301.40572815 321.1853439 300.57735368 321.18530273 299.72387695 C321.18526185 298.89447375 321.18522097 298.06507054 321.18517885 297.21053391 C321.18477299 283.7895079 321.19433034 270.36851002 321.2084411 256.94749213 C321.22286384 243.11897411 321.22970802 229.29046976 321.22884732 215.46194404 C321.22851732 207.71765988 321.23117719 199.9734052 321.24202538 192.22912788 C321.25120855 185.63189414 321.25324252 179.03470322 321.24651595 172.43746579 C321.24328923 169.08265429 321.2441758 165.72799037 321.2518692 162.37317657 C322.25965919 113.46972297 322.25965919 113.46972297 303.1875 69.93359375 C260.41978103 30.0113077 55.95106329 51 51 51 Z " fill="#FFFFFF" transform="translate(3130,3144)"/>
<path d="M0 0 C1.16463776 0.00060425 2.32927551 0.0012085 3.52920532 0.00183105 C22.18229608 0.0280124 40.67208873 0.40507323 59.25 2.1875 C60.27846039 2.28578094 60.27846039 2.28578094 61.32769775 2.38604736 C96.62393551 5.79562135 134.06522699 10.07017737 161.25 35.1875 C162.02601563 35.87199219 162.80203125 36.55648437 163.6015625 37.26171875 C185.52016197 57.63622444 190.93786424 88.82075976 194.25 117.1875 C194.38277344 118.30898437 194.51554687 119.43046875 194.65234375 120.5859375 C195.69248641 131.44331701 195.25 142.25788199 195.25 153.1875 C179.08 153.1875 162.91 153.1875 146.25 153.1875 C145.92 146.5875 145.59 139.9875 145.25 133.1875 C144.7230324 128.54375267 144.16306851 123.98204517 143.4375 119.375 C143.26009277 118.22700928 143.08268555 117.07901855 142.89990234 115.89624023 C139.71358587 93.24724439 139.71358587 93.24724439 126.875 75.375 C70.30550314 40.9159997 -24.96062159 45.02540402 -87.24609375 59.84619141 C-94.94466547 61.81140438 -102.42640031 64.36970628 -109.875 67.125 C-110.72811768 67.43663086 -111.58123535 67.74826172 -112.46020508 68.06933594 C-121.47205811 71.5434013 -129.60918757 75.96065676 -134.09375 84.8515625 C-136.60346563 91.27846942 -138.48141541 97.63782998 -139.9375 104.375 C-140.0921875 105.07898926 -140.246875 105.78297852 -140.40625 106.50830078 C-143.47726561 121.69981386 -144.12643621 136.98792607 -144.0625 152.4375 C-144.06100952 153.333479 -144.05951904 154.22945801 -144.0579834 155.15258789 C-144.01756713 168.6926419 -143.48484893 181.8861893 -140.75 195.1875 C-140.60014648 195.95336426 -140.45029297 196.71922852 -140.29589844 197.50830078 C-137.43453492 214.63877107 -137.43453492 214.63877107 -128.4375 228.5625 C-90.12137307 252.43859402 -40.10662223 252.1931973 3.41796875 252.85131836 C126.85400056 254.74331009 126.85400056 254.74331009 160.25 288.1875 C161.05050781 288.91710938 161.85101562 289.64671875 162.67578125 290.3984375 C182.87816504 309.17025525 189.45137098 336.94823062 193.25 363.1875 C193.43006592 364.37714355 193.43006592 364.37714355 193.61376953 365.59082031 C200.21359435 411.13059511 198.77348172 469.90075673 172.25 509.1875 C169.44138582 512.73472796 166.40170287 515.94792438 163.25 519.1875 C162.16231306 520.53817228 161.07879071 521.8922117 160 523.25 C141.31168194 544.35930472 109.47632168 548.53670848 83.25 552.4375 C82.24590088 552.58864258 81.24180176 552.73978516 80.20727539 552.89550781 C56.38776866 556.17228492 32.48904059 556.53843552 8.49316406 556.50317383 C5.09882272 556.49856426 1.70484167 556.5054041 -1.68945312 556.52368164 C-123.09620078 557.17054251 -123.09620078 557.17054251 -163.375 519 C-168.95384889 513.28757303 -172.98163122 507.20308018 -176.75 500.1875 C-177.35585937 499.06988281 -177.96171875 497.95226563 -178.5859375 496.80078125 C-189.61901018 474.90326363 -192.63309206 449.86991896 -195 425.75 C-195.08024414 424.96044922 -195.16048828 424.17089844 -195.24316406 423.35742188 C-196.0338535 414.25897687 -195.75 405.41075203 -195.75 396.1875 C-178.92 396.1875 -162.09 396.1875 -144.75 396.1875 C-144.5953125 402.9009375 -144.5953125 402.9009375 -144.4375 409.75 C-143.83371658 445.57134032 -143.83371658 445.57134032 -130.75 478.1875 C-103.07415296 503.32517412 -49.34136624 505.21275607 -14.32421875 505.42578125 C-13.33653378 505.43304733 -13.33653378 505.43304733 -12.32889557 505.44046021 C-7.36510325 505.47646762 -2.40141117 505.49273987 2.5625 505.5 C3.29035076 505.50129787 4.01820152 505.50259575 4.76810837 505.50393295 C26.50262894 505.53331642 47.80660174 505.1856396 69.25 501.1875 C70.36375 500.98962891 71.4775 500.79175781 72.625 500.58789062 C105.57807896 495.22550141 105.57807896 495.22550141 132.25 477.1875 C137.85572628 467.18216948 140.21936677 456.3684337 142.25 445.1875 C142.40098145 444.42131348 142.55196289 443.65512695 142.70751953 442.86572266 C149.41081679 408.11993698 148.38394712 365.3325634 132.65625 333.203125 C120.90330398 316.35723571 88.00422593 312.04019525 69.50830078 308.71923828 C63.75426872 307.78020922 57.98205147 307.07398624 52.1875 306.4375 C50.61355469 306.26408081 50.61355469 306.26408081 49.0078125 306.0871582 C33.14190812 304.50800191 17.17383415 304.15926084 1.24005127 303.9801178 C-124.57527696 302.55932604 -124.57527696 302.55932604 -163.8125 265.5625 C-192.23627829 236.33679693 -196.16078211 187.70709436 -196.05249023 149.12084961 C-195.49216442 110.59388902 -190.36848225 65.94357027 -162.55078125 36.890625 C-155.73045908 30.35213432 -148.01237127 25.65641607 -139.75 21.1875 C-139.15590332 20.86507324 -138.56180664 20.54264648 -137.94970703 20.21044922 C-97.75503029 -1.12029981 -44.42352278 -0.04281059 0 0 Z " fill="#FFFFFF" transform="translate(2369.75,3143.8125)"/>
<path d="M0 0 C0.72064636 0.06552063 1.44129272 0.13104126 2.18377686 0.19854736 C36.8461134 3.39015838 71.189073 7.82156583 98 32 C98.85335937 32.75925781 99.70671875 33.51851562 100.5859375 34.30078125 C125.92528788 58.11977061 132.04637119 96.79165641 133.09538126 130.02141654 C133.1332836 133.18902423 133.14293525 136.3553447 133.14044189 139.5231781 C133.14489858 141.32708821 133.14489858 141.32708821 133.1494453 143.16744095 C133.15656379 146.47062439 133.15929975 149.77375575 133.16004276 153.07694304 C133.16190945 156.65401313 133.16946498 160.23107232 133.17617798 163.80813599 C133.18970042 171.61697322 133.19577735 179.42580529 133.20018864 187.23465228 C133.20296314 192.12555787 133.20720278 197.01646152 133.21169281 201.9073658 C133.2238808 215.48990854 133.23417891 229.07244974 133.2375679 242.65499783 C133.23778747 243.52266161 133.23800703 244.3903254 133.23823325 245.28428203 C133.23845153 246.15385606 133.23866981 247.0234301 133.2388947 247.91935486 C133.23933814 249.68101847 133.23978471 251.44268209 133.24023438 253.2043457 C133.2404558 254.07816527 133.24067723 254.95198484 133.24090537 255.85228378 C133.24484267 269.97101357 133.26226604 284.08969142 133.2855939 298.2084012 C133.30943604 312.75783282 133.32177567 327.30723855 133.32293582 341.85668999 C133.32384575 350.00362961 133.32942299 358.15050165 133.34775543 366.29742241 C133.36333168 373.24332183 133.36817594 380.1891328 133.36001733 387.13504642 C133.35617072 390.66477861 133.35673682 394.19433373 133.37107468 397.72404289 C133.51577353 440.75056957 130.76680472 486.46453097 99.83984375 519.29296875 C78.79070112 539.69222361 50.66198019 546.5984949 22.5 550.1875 C21.29931885 550.34234863 20.0986377 550.49719727 18.86157227 550.65673828 C-6.0749647 553.62656624 -30.97178888 554.35379201 -56.05322266 554.31567383 C-59.3368913 554.31105932 -62.62018792 554.31792702 -65.90380859 554.33618164 C-98.80758542 554.51710291 -131.5616713 552.84531126 -164 547 C-164.80727539 546.85481934 -165.61455078 546.70963867 -166.44628906 546.56005859 C-189.04358167 542.30650829 -209.60365377 533.34057635 -226 517 C-227.13695312 515.89785156 -227.13695312 515.89785156 -228.296875 514.7734375 C-259.25970046 482.84969676 -259.49762658 427.3620765 -259.38818359 385.84204102 C-259.39226471 383.17857832 -259.39751002 380.51513996 -259.40411377 377.85168457 C-259.41725821 371.45249818 -259.41466132 365.05341898 -259.40587585 358.65422887 C-259.39902142 353.43971885 -259.39821547 348.22523828 -259.4014473 343.01072502 C-259.401907 342.26051579 -259.40236669 341.51030655 -259.40284032 340.73736371 C-259.40379978 339.21197239 -259.40477242 337.68658109 -259.4057581 336.16118979 C-259.41425562 321.95106811 -259.40456768 307.74100507 -259.388357 293.53089302 C-259.37496177 281.41501592 -259.37728642 269.29922515 -259.39111328 257.18334961 C-259.40727467 243.01578402 -259.41342931 228.84826947 -259.40427649 214.68069595 C-259.40332113 213.16149422 -259.40237801 211.64229249 -259.4014473 210.12309074 C-259.40098447 209.37617213 -259.40052164 208.62925351 -259.40004479 207.859701 C-259.39748611 202.66963867 -259.40181639 197.47960989 -259.40888596 192.28955269 C-259.56142646 69.325011 -259.56142646 69.325011 -224.66796875 33.61328125 C-172.97880029 -15.57075788 -65.46995728 -6.00964222 0 0 Z M-193.3125 75.125 C-210.36252696 97.26602093 -208.45314889 135.55921758 -208.38818359 161.70532227 C-208.39061348 164.4991019 -208.39750143 167.29286696 -208.40411377 170.0866394 C-208.41731414 176.82486086 -208.41463559 183.56298095 -208.40587585 190.30120606 C-208.39904548 195.78671362 -208.39820541 201.27219317 -208.4014473 206.75770378 C-208.401907 207.54434007 -208.40236669 208.33097636 -208.40284032 209.14145012 C-208.40379969 210.74046049 -208.40477233 212.33947085 -208.4057581 213.9384812 C-208.4142717 228.86176475 -208.40454132 243.78499262 -208.388357 258.70826703 C-208.37495488 271.46008018 -208.37728891 284.21181136 -208.39111328 296.96362305 C-208.4072363 311.84229388 -208.41345085 326.72091618 -208.40427649 341.59959453 C-208.40332104 343.19176701 -208.40237792 344.78393949 -208.4014473 346.37611198 C-208.40098447 347.15909555 -208.40052164 347.94207911 -208.40004479 348.74878945 C-208.39747516 354.21605338 -208.40178156 359.68328603 -208.40888596 365.15054512 C-208.4173763 371.82990755 -208.41486498 378.5091645 -208.39904372 385.18851513 C-208.39126104 388.58395216 -208.38956146 391.97907249 -208.39799118 395.37452888 C-208.89121436 438.7340909 -208.89121436 438.7340909 -192.5546875 477.8046875 C-173.17267237 496.60232027 -134.90122185 500.22068994 -109.515625 502.65234375 C-108.5318176 502.7472579 -108.5318176 502.7472579 -107.5281353 502.84408951 C-92.88761251 504.22890232 -78.27941879 504.47818536 -63.57630157 504.38672256 C-61.52024683 504.37475404 -59.46422259 504.36782062 -57.40814209 504.36190796 C9.353848 504.44440501 9.353848 504.44440501 69 478 C78.63177172 465.5240638 79.87647125 447.11787134 82 432 C82.1702428 430.86814679 82.34048559 429.73629358 82.51588726 428.57014179 C83.19575913 423.06111769 83.14809502 417.56397226 83.14717102 412.02030945 C83.15268605 410.23165985 83.15268605 410.23165985 83.1583125 408.40687591 C83.16739218 405.11360673 83.17203867 401.82036684 83.17470181 398.52708733 C83.17862489 394.96770663 83.18820219 391.40834009 83.19691467 387.84896851 C83.21662993 379.25736185 83.22674218 370.66575411 83.23564246 362.07413051 C83.24003627 358.01562962 83.24540048 353.95713002 83.25063133 349.89863014 C83.26764394 336.38315827 83.28213189 322.86768717 83.28938007 309.35220623 C83.2912896 305.84881781 83.29320998 302.34542941 83.29516602 298.84204102 C83.29564976 297.97141605 83.2961335 297.10079109 83.2966319 296.20378355 C83.30490884 282.14163005 83.33020589 268.07956225 83.36274669 254.01744606 C83.39597571 239.53821186 83.41384332 225.05902094 83.41702431 210.57974845 C83.41917559 202.46744045 83.42771817 194.35525717 83.45348549 186.24298668 C83.47541074 179.3247308 83.48313788 172.40662989 83.47351871 165.4883432 C83.46903512 161.97098364 83.47050254 158.45394227 83.49028015 154.93662834 C83.60304427 130.90161333 81.89834246 106.8805108 74 84 C73.5359375 82.62521484 73.5359375 82.62521484 73.0625 81.22265625 C68.89694333 71.70370838 57.62708734 66.86972207 48.50097656 63.18701172 C-7.33540108 42.08043672 -147.5902714 27.43994845 -193.3125 75.125 Z " fill="#FFFFFF" transform="translate(1958,3146)"/>
<path d="M0 0 C8.94629481 0.02278798 17.89259351 0.03346002 26.83891034 0.04340726 C45.16978098 0.06404562 63.50057113 0.10056734 81.83140278 0.14405447 C81.83140278 17.30405447 81.83140278 34.46405447 81.83140278 52.14405447 C72.81142963 52.16592825 72.81142963 52.16592825 63.60923481 52.18824393 C43.66436552 52.23874869 23.71957255 52.30522471 3.77477932 52.37976938 C-8.30887633 52.42454792 -20.39250368 52.46400289 -32.47621441 52.49049002 C-43.02039951 52.51361654 -53.56449369 52.54717495 -64.10860646 52.59275603 C-69.68069868 52.61649266 -75.25270196 52.63534847 -80.82484341 52.64166838 C-121.06612915 52.48972361 -121.06612915 52.48972361 -160.66859722 59.01905447 C-162.15553082 59.36516775 -162.15553082 59.36516775 -163.67250347 59.71827322 C-174.10946927 62.28969958 -183.04770222 65.96271197 -189.16859722 75.14405447 C-216.25859222 123.64876619 -203.79677745 209.5002405 -204.16859722 251.14405447 C-109.78859722 251.14405447 -15.40859722 251.14405447 81.83140278 251.14405447 C81.83140278 269.29405447 81.83140278 287.44405447 81.83140278 306.14405447 C-12.54859722 306.14405447 -106.92859722 306.14405447 -204.16859722 306.14405447 C-212.17307128 392.23019719 -212.17307128 392.23019719 -183.46547222 486.07374197 C-159.09141647 509.93573773 -104.94954538 504.61378882 -73.65178847 504.65016538 C-68.16923561 504.65966318 -62.68676066 504.68587391 -57.20425701 504.71017081 C-46.86364291 504.75353016 -36.52304418 504.78226351 -26.18236738 504.80549419 C-14.3923653 504.83271155 -2.6024428 504.87661152 9.18750203 504.92178291 C33.40210369 505.0141905 57.61669811 505.08386934 81.83140278 505.14405447 C81.83140278 521.97405447 81.83140278 538.80405447 81.83140278 556.14405447 C56.4894977 556.21216942 31.14766845 556.26726546 5.80569458 556.29949099 C-5.96498521 556.31486153 -17.73560346 556.33575954 -29.50624371 556.37037283 C-39.7834769 556.40057975 -50.06066546 556.41970042 -60.33794183 556.42631996 C-65.76336975 556.43018013 -71.18867017 556.43903812 -76.61405659 556.46124464 C-96.77679783 556.54043948 -116.85041901 556.51710092 -136.95057964 554.76636893 C-137.6648923 554.70475085 -138.37920495 554.64313277 -139.11516345 554.57964748 C-150.22369271 553.59040671 -160.6200822 551.72932465 -171.16859722 548.14405447 C-172.86379643 547.5994309 -174.55911417 547.05517614 -176.25453472 546.51124197 C-203.79142761 537.46498353 -224.96706949 522.62476859 -238.95375347 496.85499197 C-255.42487208 462.90173981 -255.32241093 422.78877306 -255.31386089 385.88331228 C-255.31685919 383.2791197 -255.32026324 380.67492756 -255.32403851 378.07073599 C-255.3322778 371.77053778 -255.33509031 365.47034893 -255.33565088 359.17014578 C-255.33612947 354.03591583 -255.33820109 348.90168892 -255.34135151 343.76745993 C-255.35014138 329.1399798 -255.35477375 314.51250695 -255.35402104 299.88502416 C-255.35398108 299.09958131 -255.35394112 298.31413846 -255.35389996 297.50489432 C-255.35385908 296.71846728 -255.35381819 295.93204025 -255.35377607 295.12178209 C-255.35337055 282.40735677 -255.36292088 269.69296118 -255.37703832 256.97854444 C-255.39149362 243.85386361 -255.39830345 230.72919719 -255.39744455 217.60450822 C-255.39711561 210.26415424 -255.39972699 202.92383141 -255.4106226 195.58348471 C-255.41984937 189.32837085 -255.42180551 183.07330222 -255.41511317 176.81818441 C-255.41190736 173.6427392 -255.41271378 170.46739572 -255.42046642 167.29195601 C-255.45095953 153.91588435 -255.14081203 140.60803106 -254.26669598 127.26118094 C-254.18759367 126.05229971 -254.10849137 124.84341849 -254.02699202 123.5979045 C-252.0562597 96.01986511 -248.19355406 64.37231006 -230.16859722 42.14405447 C-229.51375347 41.31518728 -228.85890972 40.4863201 -228.18422222 39.63233572 C-203.7761958 10.54758891 -161.04892195 6.25683972 -125.74038982 3.13091666 C-83.8498554 -0.27329116 -41.99561553 -0.10891036 0 0 Z " fill="#FFFFFF" transform="translate(3876.1685972213745,3143.8559455275536)"/>
<path d="M0 0 C16.83 0 33.66 0 51 0 C50.97268799 7.38810059 50.94537598 14.77620117 50.91723633 22.38818359 C50.83742602 46.08545039 50.81203192 69.78245931 50.82046365 93.47984483 C50.82172601 97.16690172 50.82250998 100.85395856 50.82299805 104.54101562 C50.82310325 105.27497589 50.82320845 106.00893615 50.82331683 106.76513763 C50.82387728 118.6160066 50.78577203 130.46644701 50.73312465 142.31718545 C50.67988699 154.4966749 50.66878687 166.67568946 50.6959936 178.85526717 C50.71144967 186.35811513 50.69487845 193.85943851 50.63601431 201.36207749 C50.59425258 207.13612135 50.61140272 212.90889054 50.64941406 218.6829052 C50.65595759 221.03615344 50.64404932 223.38954434 50.61136436 225.74257469 C50.41438694 240.89833546 52.46891717 250.91980713 61.65004957 263.16176534 C63.68837091 265.93735832 65.43592127 268.85304019 67.21484375 271.80078125 C67.84890137 272.83025879 68.48295898 273.85973633 69.13623047 274.92041016 C72.38204967 280.28362255 75.47192754 285.73382408 78.5625 291.1875 C79.96765477 293.65817597 81.37451273 296.12788106 82.78125 298.59765625 C83.13417618 299.21775574 83.48710236 299.83785522 83.85072327 300.47674561 C87.39784056 306.70638085 90.97679664 312.9175022 94.5625 319.125 C95.17681885 320.18871826 95.7911377 321.25243652 96.42407227 322.34838867 C97.66292223 324.49309587 98.90193541 326.6377088 100.14111328 328.78222656 C103.26324605 334.18670645 106.38141204 339.59347412 109.5 345 C110.74998122 347.1666775 111.99998121 349.33334417 113.25 351.5 C130.75 381.83333333 148.25 412.16666667 165.75 442.5 C166.36963623 443.57403076 166.98927246 444.64806152 167.62768555 445.75463867 C168.86875254 447.90583224 170.10980093 450.05703655 171.35083008 452.20825195 C174.26498344 457.25962999 177.17931818 462.3109031 180.09432983 467.36178589 C181.12673478 469.15066918 182.15907956 470.93958717 183.19140625 472.72851562 C184.48685948 474.97337636 185.7824257 477.2181719 187.078125 479.46289062 C190.06307914 484.63571774 193.04245317 489.81145009 196 495 C198.81784037 492.4916488 200.45723723 489.70077062 202.30078125 486.42578125 C202.94096191 485.2955957 203.58114258 484.16541016 204.24072266 483.00097656 C204.74675018 482.0999823 204.74675018 482.0999823 205.26300049 481.18078613 C207.05472933 477.99120661 208.86275894 474.81086847 210.66796875 471.62890625 C211.03390137 470.98279388 211.39983398 470.33668152 211.77685547 469.67098999 C215.17855793 463.66939065 218.64093025 457.70414889 222.125 451.75 C222.97940674 450.28856567 222.97940674 450.28856567 223.85107422 448.79760742 C224.99583897 446.84041327 226.14101839 444.8834616 227.28662109 442.92675781 C230.17381178 437.9949194 233.05647417 433.06044184 235.9375 428.125 C236.51258301 427.13983398 237.08766602 426.15466797 237.68017578 425.13964844 C241.97612199 417.7727766 246.2428357 410.38933859 250.5 403 C258.19128838 389.64990822 265.9548291 376.34266958 273.72949219 363.04101562 C280.35021812 351.71147109 286.94935227 340.37023397 293.5 329 C300.04475417 317.63999572 306.63803456 306.30902316 313.25292969 294.98974609 C316.23294921 289.89006484 319.21039113 284.7888808 322.1875 279.6875 C322.70900635 278.79466309 323.2305127 277.90182617 323.76782227 276.98193359 C324.83341136 275.15619259 325.8854169 273.3224609 326.92421246 271.48134327 C328.4007207 268.92727369 330.01711821 266.52350668 331.71503162 264.11166668 C340.68139371 250.86275953 341.55704622 239.67387108 341.34057617 223.9855957 C341.3473512 221.52960494 341.35896508 219.07362355 341.375 216.61767578 C341.39854235 211.37044239 341.3891011 206.12442546 341.34822655 200.87734413 C341.28919235 193.29149956 341.29185403 185.70661645 341.30866591 178.12060585 C341.33431889 165.80762306 341.31137689 153.49524412 341.25708008 141.18237305 C341.20450108 129.23504358 341.17530274 117.2880265 341.17700195 105.34057617 C341.17714751 104.23242094 341.17714751 104.23242094 341.17729601 103.10187874 C341.17792534 99.39498689 341.17900856 95.68809534 341.18031728 91.98120368 C341.1905569 61.32038594 341.11250226 30.66068341 341 0 C357.83 0 374.66 0 392 0 C392.33180277 31.88165193 392.60832222 63.76160382 392.76597994 95.64446743 C392.78473652 99.42378861 392.80415174 103.20310614 392.82397461 106.98242188 C392.82790927 107.73469333 392.83184392 108.48696479 392.83589781 109.26203236 C392.90085055 121.38136264 393.01893692 133.49960602 393.15729194 145.61829534 C393.29846125 158.08917941 393.3810678 170.55950148 393.41132742 183.03115153 C393.42991528 190.021727 393.47433323 197.01003237 393.58595085 203.99979401 C394.43381247 258.69932948 394.43381247 258.69932948 378.94676399 279.26665497 C375.43004781 284.20428416 372.78211674 289.62666166 370 295 C368.84995864 297.13996183 367.69674176 299.27822296 366.5390625 301.4140625 C364.07816605 305.98272845 361.63830196 310.56192267 359.2109375 315.1484375 C352.31319813 328.16574464 345.19289888 340.97898089 337.49462891 353.54296875 C334.80703325 357.96112666 332.18756873 362.41950755 329.5625 366.875 C328.47006415 368.72656962 327.37761621 370.57813211 326.28515625 372.4296875 C325.74262207 373.34975586 325.20008789 374.26982422 324.64111328 375.21777344 C321.93027191 379.8135408 319.21492427 384.40664384 316.5 389 C315.41664473 390.83332037 314.3333114 392.66665371 313.25 394.5 C311.08333333 398.16666667 308.91666667 401.83333333 306.75 405.5 C305.94598755 406.86064575 305.94598755 406.86064575 305.12573242 408.2487793 C304.03997961 410.0861946 302.95420479 411.92359689 301.8684082 413.76098633 C299.19691439 418.28176042 296.52577545 422.80274334 293.85546875 427.32421875 C287.57023827 437.96554957 281.27518174 448.60101139 274.9730835 459.23236084 C268.83166666 469.59295994 262.70131144 479.96004974 256.57666016 490.33056641 C254.97200732 493.04739423 253.36694036 495.76397694 251.76171875 498.48046875 C251.22361572 499.39111084 250.6855127 500.30175293 250.13110352 501.23999023 C249.0471102 503.07422828 247.96296403 504.90837601 246.87866211 506.74243164 C244.14153879 511.37274223 241.40762388 516.00489517 238.6796875 520.640625 C233.42456393 529.56490121 228.1430358 538.47069882 222.75 547.3125 C222.05076416 548.46057129 222.05076416 548.46057129 221.33740234 549.63183594 C218.12537169 554.87462831 218.12537169 554.87462831 217 556 C215.55710213 556.09295815 214.10970215 556.11746513 212.66381836 556.11352539 C211.7429393 556.11344986 210.82206024 556.11337433 209.87327576 556.11329651 C208.87224319 556.10813522 207.87121063 556.10297394 206.83984375 556.09765625 C205.82024063 556.0962413 204.80063751 556.09482635 203.75013733 556.09336853 C200.47922893 556.08775097 197.20838787 556.0751955 193.9375 556.0625 C191.72591244 556.05748726 189.51432382 556.05292396 187.30273438 556.04882812 C181.86846643 556.03777584 176.43423803 556.02102063 171 556 C163.30140846 542.68478386 155.62245425 529.35895008 148 516 C142.85683542 506.98635441 137.69232464 497.98545444 132.5 489 C126.96769373 479.42619842 121.46969438 469.83330682 115.98974609 460.22949219 C110.5709155 450.73408609 105.11750879 441.25903839 99.64672852 431.79345703 C94.7095099 423.24510815 89.81317064 414.67382616 84.92437744 406.0977478 C80.29124313 397.97303082 75.60615213 389.88054856 70.875 381.8125 C65.45027022 372.55954681 60.1832495 363.22601817 54.96386719 353.85595703 C51.37653576 347.42638635 47.71654677 341.05061407 43.95678711 334.72070312 C40.00094362 328.04387974 36.15577834 321.30448071 32.3125 314.5625 C26.34682664 304.09768149 20.35130373 293.65119176 14.31176758 283.22875977 C13.18741968 281.28513201 12.07727627 279.33320279 10.98300838 277.3724823 C9.04442838 273.96491609 9.04442838 273.96491609 6.71583652 270.78460693 C-1.62211609 258.62032695 -1.22350801 246.82745798 -1.02172852 232.5 C-1.01918561 229.9558013 -1.02062312 227.41159601 -1.02571106 224.86740112 C-1.02774948 219.42035401 -1.0025071 213.97456013 -0.95157051 208.527771 C-0.87797887 200.65322816 -0.85494245 192.77915269 -0.84367859 184.90430331 C-0.82405028 172.12375984 -0.76434654 159.34373756 -0.67895508 146.56347656 C-0.59616272 134.15920594 -0.53254628 121.75507761 -0.49438477 109.35058594 C-0.490838 108.20092401 -0.490838 108.20092401 -0.48721958 107.02803659 C-0.47547303 103.18247725 -0.46409995 99.33691691 -0.45291245 95.4913559 C-0.35982809 63.66044185 -0.19403178 31.83049855 0 0 Z " fill="#FFFFFF" transform="translate(4067,3144)"/>
<path d="M0 0 C4.19325677 0.00636255 8.38651472 0.00684732 12.57977557 0.00802541 C20.47671053 0.01110147 28.37363122 0.0192632 36.27055997 0.0293749 C45.27943066 0.04065357 54.28830213 0.04607573 63.29717815 0.05107033 C81.78877161 0.0614501 100.28034556 0.07974766 118.7719295 0.10139394 C118.7719295 17.59139394 118.7719295 35.08139394 118.7719295 53.10139394 C109.56234332 53.12326772 109.56234332 53.12326772 100.16670489 53.14558339 C79.81071613 53.19607073 59.45480228 53.26254353 39.09888816 53.33710885 C26.76521993 53.38190244 14.43157952 53.42135414 2.09785724 53.44782948 C-8.66349406 53.4709436 -19.4247561 53.50448877 -30.18603641 53.5500955 C-35.87379166 53.57384847 -41.56145949 53.59269377 -47.24926305 53.59900784 C-100.48484623 51.22940101 -100.48484623 51.22940101 -148.2280705 70.10139394 C-168.83956696 95.11948619 -166.3799981 135.70819669 -166.37333417 166.10481191 C-166.37579001 168.83637556 -166.37970594 171.56793674 -166.38351178 174.2994988 C-166.39177406 180.92442546 -166.39456464 187.54934322 -166.39512416 194.17427461 C-166.3956016 199.56894925 -166.39766764 204.963621 -166.40082479 210.35829473 C-166.40962066 225.7038517 -166.41424604 241.04940171 -166.41349431 256.39496122 C-166.41343438 257.63264835 -166.41343438 257.63264835 -166.41337323 258.89533925 C-166.41331191 260.13456467 -166.41331191 260.13456467 -166.41324935 261.39882495 C-166.41284358 274.76420997 -166.42239862 288.12956674 -166.4365116 301.4949436 C-166.45093857 315.26809585 -166.45777827 329.04123437 -166.45691782 342.81439435 C-166.45658794 350.52685237 -166.4592422 358.23928078 -166.47009587 365.95173192 C-166.47928473 372.52258671 -166.48130855 379.09339848 -166.47458645 385.66425698 C-166.47136238 389.0050157 -166.47223886 392.34562633 -166.4799397 395.6863873 C-167.34694752 444.14130402 -167.34694752 444.14130402 -147.610883 487.00764394 C-122.53490986 510.52386755 -69.48436857 504.57098103 -37.90182781 504.60750484 C-32.37392167 504.61702623 -26.84609218 504.64323797 -21.31823468 504.66751027 C-10.89983847 504.71080684 -0.48145744 504.7395781 9.93700069 504.76283365 C21.81899165 504.79008554 33.70090406 504.83398274 45.58283842 504.87912238 C69.97917054 504.97143958 94.37549561 505.04116405 118.7719295 505.10139394 C118.7719295 521.93139394 118.7719295 538.76139394 118.7719295 556.10139394 C92.00529151 556.16938798 65.23872457 556.22453594 38.47202182 556.25683045 C26.04087212 556.27223085 13.6097803 556.29318808 1.17866778 556.3277123 C-9.66945692 556.35782554 -20.51753966 556.37701839 -31.36570501 556.38365942 C-37.09774995 556.38753495 -42.82967494 556.39649645 -48.56168103 556.41858411 C-149.41532091 556.7919984 -149.41532091 556.7919984 -185.2280705 521.25764394 C-206.28010287 499.50567187 -213.55001914 471.12981247 -216.9155705 441.78889394 C-217.03496991 440.7598998 -217.15436933 439.73090566 -217.2773869 438.67072988 C-219.31688598 419.43273425 -219.37811653 400.07494744 -219.37333417 380.75105214 C-219.3763352 378.2923114 -219.37973986 375.83357112 -219.38351178 373.37483144 C-219.39135823 367.44381343 -219.39456235 361.51280476 -219.39512416 355.58178262 C-219.39560403 350.74469738 -219.39768183 345.90761535 -219.40082479 341.07053113 C-219.40960739 327.26673722 -219.41424817 313.462951 -219.41349431 299.65915427 C-219.41345436 298.91910459 -219.4134144 298.17905491 -219.41337323 297.41657948 C-219.41333235 296.67559462 -219.41329147 295.93460975 -219.41324935 295.17117079 C-219.41284402 283.19756081 -219.42239141 271.22398243 -219.4365116 259.25038157 C-219.45099509 246.86796798 -219.45777522 234.48556969 -219.45691782 222.10314745 C-219.45658984 215.18690806 -219.45921587 208.27070212 -219.47009587 201.35447049 C-219.54455541 151.55699081 -219.54455541 151.55699081 -218.32694745 130.85603261 C-218.28726295 130.17803566 -218.24757845 129.5000387 -218.20669138 128.80149639 C-216.04625896 93.39718752 -210.26920542 56.4124597 -182.85941815 31.50520253 C-178.95799915 28.14795032 -174.73970631 25.54761707 -170.2280705 23.10139394 C-168.83008222 22.32215566 -168.83008222 22.32215566 -167.40385175 21.52717519 C-140.36841372 7.19731017 -107.90946811 4.82847276 -77.9155705 2.47639394 C-77.12633191 2.4137737 -76.33709332 2.35115346 -75.52393842 2.28663564 C-50.35997252 0.31777362 -25.2264121 -0.04492114 0 0 Z " fill="#FFFFFF" transform="translate(1470.2280704975128,3143.8986060619354)"/>
<path d="M0 0 C130.02 0 260.04 0 394 0 C394 18.15 394 36.3 394 55 C337.57 55 281.14 55 223 55 C223 220.33 223 385.66 223 556 C205.18 556 187.36 556 169 556 C169 390.67 169 225.34 169 55 C113.23 55 57.46 55 0 55 C0 36.85 0 18.7 0 0 Z " fill="#FFFFFF" transform="translate(2645,3144)"/>
<path d="M0 0 C16.83 0 33.66 0 51 0 C51.06794974 52.75708995 51.12159918 105.51416932 51.15319599 158.27129443 C51.15694769 164.51281289 51.1608307 170.75433127 51.16479492 176.99584961 C51.16558185 178.23831958 51.16636878 179.48078955 51.16717956 180.76091013 C51.18020067 200.82636371 51.20383618 220.89179127 51.23145839 240.95722946 C51.2596046 261.57670414 51.27619565 282.19616528 51.28226548 302.81565839 C51.28636289 315.5185766 51.29926033 328.22142121 51.3237494 340.92431674 C51.33972062 349.65869676 51.34437487 358.39303925 51.34050413 367.12743279 C51.33860012 372.15171187 51.34132506 377.1758632 51.35761642 382.20011902 C51.50575295 430.35710873 50.91789332 485.41471674 15.3125 522.1875 C-18.55594291 555.83841919 -76.98338102 556.09501366 -121.5078125 556.203125 C-122.31728207 556.20595238 -123.12675163 556.20877975 -123.96075058 556.21169281 C-128.26452692 556.22656603 -132.5682709 556.23586402 -136.87207031 556.24023438 C-140.33474556 556.24456884 -143.79716457 556.25828002 -147.25976562 556.28125 C-266.1567252 557.05321612 -266.1567252 557.05321612 -305.6875 519.8125 C-333.52745248 491.0097826 -338.48662513 442.31804268 -338 404 C-331.86672395 404.60319814 -325.93624715 405.51777997 -319.9140625 406.8125 C-318.67866226 407.07317261 -318.67866226 407.07317261 -317.41830444 407.33911133 C-315.69526909 407.70353939 -313.97266596 408.07001666 -312.25048828 408.43847656 C-309.61198475 409.00278362 -306.97215129 409.56049737 -304.33203125 410.1171875 C-302.65096089 410.47357754 -300.96996842 410.83033518 -299.2890625 411.1875 C-298.1078331 411.43753784 -298.1078331 411.43753784 -296.90274048 411.69262695 C-293.87472998 412.34194192 -290.94061283 413.01979572 -288 414 C-287.93006836 414.74870361 -287.86013672 415.49740723 -287.78808594 416.26879883 C-286.0466623 434.54954749 -284.29206189 452.50337603 -278.0625 469.875 C-277.83393311 470.5237207 -277.60536621 471.17244141 -277.36987305 471.84082031 C-273.68736735 481.38214571 -264.78798415 485.83727066 -256 490 C-234.45884608 499.19716834 -210.17987182 503.03380189 -187 505 C-185.89285645 505.09498779 -184.78571289 505.18997559 -183.64501953 505.2878418 C-171.6809419 506.17415731 -159.71484153 506.18611831 -147.72265625 506.18530273 C-144.16654209 506.18747463 -140.61074652 506.20565226 -137.0546875 506.22460938 C-116.88154101 506.27470731 -96.63613078 505.4557248 -76.6875 502.25 C-75.09107666 501.99621582 -75.09107666 501.99621582 -73.46240234 501.73730469 C-55.6834887 498.74893974 -24.08878623 493.33450835 -12.54296875 478.07421875 C2.3852795 451.96105942 -0.54535404 416.02123814 -0.56726015 387.08304584 C-0.56789151 381.87345977 -0.55119466 376.66392306 -0.53674316 371.45436096 C-0.51409098 362.45733191 -0.50209537 353.46034122 -0.49761391 344.46328545 C-0.49111887 331.45552078 -0.4681231 318.44782508 -0.44127061 305.4400884 C-0.3981307 284.32912793 -0.36809114 263.21817038 -0.34643555 242.10717773 C-0.32538733 221.61595219 -0.29807888 201.12475053 -0.26245117 180.63354492 C-0.26025235 179.36765289 -0.25805352 178.10176086 -0.25578807 176.79750847 C-0.24471746 170.4460598 -0.23352483 164.09461134 -0.22227156 157.74316299 C-0.12926788 105.16212855 -0.05840321 52.58108331 0 0 Z " fill="#FFFFFF" transform="translate(380,3144)"/>
<path d="M0 0 C3.90239754 4.13835646 5.9593776 7.7238658 7.9375 13.125 C8.44433922 14.45059212 8.95481657 15.77479839 9.46875 17.09765625 C9.72269531 17.75266113 9.97664063 18.40766602 10.23828125 19.08251953 C13.95511643 28.43893732 17.57699175 35.18091401 26.3125 40.375 C35.01246673 42.39824808 41.72932748 40.41024033 49.625 36.6875 C51.40814062 35.87733393 53.19198513 35.06871513 54.9765625 34.26171875 C55.82500732 33.87540283 56.67345215 33.48908691 57.54760742 33.09106445 C69.43371013 27.80296161 69.43371013 27.80296161 76 30 C83.46163644 33.68492063 90.56361424 39.92021532 94.1953125 47.4921875 C97.06508103 56.43583506 93.96719082 63.9221024 90 72 C89.44957031 73.01578125 88.89914062 74.0315625 88.33203125 75.078125 C84.89035209 81.45463271 82.37848096 86.68459731 84 94 C86.77076617 100.97119709 92.77467556 106.81100262 99.37841797 110.23217773 C101.87639295 111.27304194 104.38729668 112.21990118 106.9375 113.125 C126.29424888 120.20420885 126.29424888 120.20420885 129.41796875 126.72265625 C131.36634452 134.3461668 131.09798683 144.64958786 128 152 C124.87661801 156.94020072 121.16962764 158.73383059 116 161 C115.24614014 161.34321289 114.49228027 161.68642578 113.71557617 162.04003906 C109.2868281 164.0409993 104.81461305 165.91978089 100.3125 167.75 C93.01877564 170.763276 88.08856951 173.57159436 85 181 C81.74819965 191.16187609 88.62256229 202.84577326 92.73046875 212.1015625 C95.6270469 218.71467322 96.2604213 226.05806039 94.45703125 233.12890625 C91.21505001 239.68897157 83.59582814 245.15471092 77 248 C70.9102767 248.83633536 65.64656374 247.62087427 60 245.4375 C59.28303955 245.17445068 58.5660791 244.91140137 57.82739258 244.64038086 C53.93116927 243.19025882 50.08866395 241.63136501 46.26171875 240.0078125 C45.49537109 239.68369385 44.72902344 239.3595752 43.93945312 239.02563477 C42.46538264 238.39519157 40.99632433 237.7528652 39.53320312 237.09741211 C34.822194 235.0526115 34.822194 235.0526115 30 236 C27.29286856 237.94771376 24.92945913 240.28163885 22.5 242.5625 C21.83613281 243.15869141 21.17226562 243.75488281 20.48828125 244.36914062 C14.15701306 250.26442328 11.28572016 256.1484636 9.1875 264.5 C7.11030856 271.5411883 3.94753642 276.78552835 -2.5625 280.4375 C-9.85988946 282.12151295 -16.66218555 282.48673161 -24.0625 281.375 C-24.83722656 281.25898437 -25.61195313 281.14296875 -26.41015625 281.0234375 C-31.54973363 278.99241296 -34.8854915 276.10107179 -37.49291992 271.18554688 C-38.93648064 267.83919158 -40.27102641 264.47039727 -41.5625 261.0625 C-46.3050751 248.40296284 -46.3050751 248.40296284 -55.8125 239.125 C-67.04090179 235.16203466 -75.72460892 239.05502086 -86.10546875 243.89453125 C-101.17522234 250.90746962 -101.17522234 250.90746962 -108 249 C-111.14924939 247.45927133 -113.47331133 245.41225531 -116 243 C-116.46148438 242.56059082 -116.92296875 242.12118164 -117.3984375 241.66845703 C-127.79144216 231.70288488 -127.79144216 231.70288488 -128.40234375 226.71484375 C-128.31858944 220.20110915 -125.14302557 214.41744711 -122.5625 208.5625 C-116.8589651 196.34270906 -116.8589651 196.34270906 -116.53125 183.14453125 C-116.8509375 182.37496094 -117.170625 181.60539062 -117.5 180.8125 C-117.7990625 180.03519531 -118.098125 179.25789063 -118.40625 178.45703125 C-123.57301777 170.4915976 -131.4318286 167.90142259 -140.0625 164.8125 C-142.36684158 163.96744652 -144.67026 163.11987059 -146.97265625 162.26953125 C-147.98593994 161.90448486 -148.99922363 161.53943848 -150.04321289 161.16333008 C-158.55936309 157.81270208 -158.55936309 157.81270208 -160.35546875 154.5 C-161.24994495 149.64272319 -161.32884465 144.92954567 -161.3125 140 C-161.32861328 139.02804687 -161.34472656 138.05609375 -161.36132812 137.0546875 C-161.36502954 131.62101133 -161.11212806 127.66081738 -158 123 C-153.10028097 118.44212183 -147.40153882 116.53909735 -141.203125 114.30078125 C-127.76338177 109.69117298 -127.76338177 109.69117298 -118 100 C-115.07315082 92.81591565 -116.10090867 86.82407843 -118.9609375 79.87109375 C-119.75511667 78.05526355 -120.5600331 76.24409592 -121.375 74.4375 C-121.77460937 73.53064453 -122.17421875 72.62378906 -122.5859375 71.68945312 C-124.02525162 68.42495613 -125.47752798 65.1663636 -126.93603516 61.91040039 C-128.83002626 57.61057475 -129.82871885 54.72369746 -129 50 C-127.0382855 46.96355082 -124.55753566 44.53998825 -122 42 C-121.06234449 41.02874881 -120.12623249 40.0560059 -119.19140625 39.08203125 C-110.64166311 30.28120058 -110.64166311 30.28120058 -104.18359375 29.59375 C-97.30839447 29.67160868 -91.26645288 32.80891127 -85.0625 35.5 C-72.27961314 41.30451813 -72.27961314 41.30451813 -58.69116211 40.23095703 C-49.791858 36.42920728 -46.80372226 29.05735797 -43.3359375 20.54296875 C-42.21007519 17.55712923 -41.30259097 14.64539355 -40.5 11.5625 C-38.67155089 5.13650544 -35.41761388 1.41407604 -29.6875 -1.9375 C-20.83203705 -4.69519736 -8.06916801 -4.65528924 0 0 Z M-53.24609375 111.60546875 C-61.34120216 122.65736508 -63.27999984 134.64960165 -62 148 C-59.67422819 158.9416992 -52.79664248 169.15198085 -44 176 C-32.19467629 183.00596314 -20.56801837 187.19595187 -6.69140625 184.3125 C6.11078464 180.69350611 16.82882009 174.17125375 24.046875 162.765625 C30.45196579 150.85533221 32.63836844 139.2274906 29 126 C23.79977111 111.95763107 14.09987913 102.30369651 0.7109375 95.90625 C-18.98665607 88.5958029 -40.13497221 96.0575327 -53.24609375 111.60546875 Z " fill="#FFFFFF" transform="translate(1889,1689)"/>
<path d="M0 0 C16.5 0 33 0 50 0 C50 183.48 50 366.96 50 556 C33.5 556 17 556 0 556 C0 372.52 0 189.04 0 0 Z " fill="#FFFFFF" transform="translate(567,3144)"/>
</svg>
