<?xml version="1.0" encoding="UTF-8"?>
<svg version="1.1" xmlns="http://www.w3.org/2000/svg" width="4501" height="4501">
<path d="M0 0 C51.81 0 103.62 0 157 0 C157 125.73 157 251.46 157 381 C247.5507936 380.92121093 247.5507936 380.92121093 338.1015625 380.81982422 C355.8671875 380.81079102 355.8671875 380.81079102 364.26074219 380.80911255 C369.95509623 380.80729619 375.6494077 380.80013369 381.34375 380.78884888 C414.35681668 380.72561793 447.33464635 380.98884627 480.3359375 381.92626953 C481.07759549 381.94721612 481.81925347 381.96816271 482.58338594 381.98974404 C576.94510456 384.66885245 672.18322843 389.6877628 833 424 C834.12245117 424.36287109 835.24490234 424.72574219 836.40136719 425.09960938 C882.33048499 440.13754538 928.67388826 465.35488718 960 503 C960.80695313 503.9075 961.61390625 504.815 962.4453125 505.75 C974.24432239 519.10280658 983.79819585 534.21066909 992 550 C992.42635742 550.82000488 992.85271484 551.64000977 993.29199219 552.48486328 C1005.93741336 577.1338754 1014.25069778 603.1943406 1021 630 C1021.4014624 631.58772217 1021.4014624 631.58772217 1021.81103516 633.20751953 C1036.31145626 691.67755193 1041.03245239 753.00992165 1043.10101318 813.02792358 C1043.14326844 814.24092779 1043.1855237 815.453932 1043.22905943 816.70369391 C1044.31013021 848.67489341 1044.28790935 880.64801553 1044.26333704 912.63386678 C1044.25676264 921.73862658 1044.26223263 930.84337154 1044.26774407 939.94813065 C1044.27815763 957.77507694 1044.27741067 975.6020087 1044.27158624 993.42895629 C1044.26651524 1009.03024908 1044.26526007 1024.6315366 1044.26763153 1040.23283005 C1044.26786069 1041.79717407 1044.26786069 1041.79717407 1044.26809447 1043.393121 C1044.26871735 1047.62866218 1044.26935417 1051.86420335 1044.270014 1056.09974452 C1044.27610445 1095.66946079 1044.27062894 1135.23916792 1044.2598202 1174.80888277 C1044.25033067 1209.81497622 1044.25118265 1244.82105511 1044.26074219 1279.82714844 C1044.271496 1319.33671617 1044.27567357 1358.84627586 1044.26951766 1398.35584486 C1044.26887641 1402.58216373 1044.26825072 1406.80848261 1044.26763153 1411.03480148 C1044.26747338 1412.07510629 1044.26731522 1413.11541109 1044.26715227 1414.18724029 C1044.26489576 1429.76409734 1044.26750302 1445.34094849 1044.27259064 1460.91780472 C1044.278358 1478.6621758 1044.27677697 1496.40653035 1044.26602915 1514.15089943 C1044.26074083 1523.17473652 1044.25840024 1532.19854675 1044.26532745 1541.2223835 C1044.28823381 1573.17865517 1044.25506081 1605.11035989 1043.09710693 1637.0496521 C1043.05746811 1638.15103129 1043.01782929 1639.25241047 1042.9769893 1640.38716479 C1039.81610348 1725.37416754 1031.53252174 1818.50406761 963 1936 C962.23042969 1936.98355469 961.46085937 1937.96710938 960.66796875 1938.98046875 C948.64751435 1953.98979289 935.15900264 1968.16534004 920 1980 C919.39446289 1980.48194824 918.78892578 1980.96389648 918.16503906 1981.46044922 C907.26065636 1990.13475861 895.963517 1997.85979796 884 2005 C883.26700684 2005.43940918 882.53401367 2005.87881836 881.77880859 2006.33154297 C860.15458253 2019.16227337 836.53454307 2027.60824948 812.97406006 2036.11541748 C810.15363188 2037.13603999 807.33609171 2038.16450511 804.51856804 2039.19311333 C801.75512284 2040.20135017 798.99041655 2041.20608956 796.22528458 2042.20969009 C794.31251385 2042.90415431 792.40037003 2043.6003445 790.48825073 2044.29660034 C789.30216217 2044.7244986 788.11607361 2045.15239685 786.89404297 2045.59326172 C785.8730954 2045.96280975 784.85214783 2046.33235779 783.80026245 2046.71310425 C752.04927865 2057.64518864 718.76603375 2061.97123749 685.46411133 2064.94506836 C683.89693319 2065.08753555 683.89693319 2065.08753555 682.29809488 2065.23288088 C619.67334373 2070.89079741 556.87764549 2070.17468669 494.06199486 2069.93184758 C481.88308185 2069.88555132 469.70427423 2069.86233507 457.52527809 2069.85389519 C456.20895828 2069.8529672 456.20895828 2069.8529672 454.86604615 2069.85202047 C450.40570246 2069.84897361 445.94535863 2069.84626185 441.48501465 2069.84367859 C410.25576863 2069.82499714 379.02673471 2069.76499965 347.79760742 2069.67895508 C317.54338649 2069.59569557 287.28922504 2069.53239428 257.03491211 2069.49438477 C255.1176402 2069.491949 253.20036828 2069.48951265 251.28309637 2069.48707575 C235.69330383 2069.46736397 220.10350971 2069.44898582 204.51371517 2069.4309294 C133.00894206 2069.34715926 61.50472593 2069.16634259 -10 2069 C-10 1944.59 -10 1820.18 -10 1692 C-4.12097049 1689.06048525 1.63397324 1686.2411693 7.63354492 1683.6159668 C36.84785638 1670.76465162 64.6330845 1652.80348716 88 1631 C89.34896122 1629.80659008 90.70292974 1628.61880958 92.0625 1627.4375 C92.701875 1626.87804688 93.34125 1626.31859375 94 1625.7421875 C95.41168042 1624.51248151 96.82889135 1623.28911054 98.25 1622.0703125 C102.63467371 1618.26334918 106.58104842 1614.35648856 110.328125 1609.921875 C111.93441634 1608.07539056 113.61317614 1606.38466977 115.375 1604.6875 C121.15139652 1598.98795133 126.03345228 1592.4821736 131.06640625 1586.1328125 C131.59403564 1585.46894531 132.12166504 1584.80507812 132.6652832 1584.12109375 C133.69699133 1582.8215643 134.72563984 1581.519598 135.75073242 1580.21484375 C136.23002197 1579.61027344 136.70931152 1579.00570312 137.203125 1578.3828125 C137.62239258 1577.85059082 138.04166016 1577.31836914 138.47363281 1576.77001953 C140.52711305 1574.38874446 142.77027003 1572.21560916 145 1570 C145.58208599 1640.65505852 146.09277216 1711.31037928 146.51238817 1781.96659648 C146.55094394 1788.4540322 146.59014229 1794.94146381 146.62960815 1801.42889404 C146.68357667 1810.30966386 146.73590209 1819.19044238 146.78719711 1828.07122803 C146.80992247 1831.99775444 146.83351562 1835.92427473 146.85777879 1839.85079193 C146.96371262 1857.62021787 147.0106409 1875.38884215 147.00474548 1893.15859985 C147.00436337 1895.19391027 147.00401716 1897.2292207 147.00370741 1899.26453114 C147.00288364 1904.17635427 147.00158037 1909.08817705 147 1914 C192.30660556 1913.95587527 237.61320658 1913.90814023 282.91978455 1913.84101868 C283.92883384 1913.83952533 283.92883384 1913.83952533 284.95826798 1913.83800181 C299.58488774 1913.81633317 314.21150643 1913.79400975 328.83812416 1913.77101372 C336.01309496 1913.75973718 343.18806597 1913.74860502 350.36303711 1913.73754883 C351.07695684 1913.73644626 351.79087657 1913.7353437 352.52643024 1913.73420772 C375.58319381 1913.69866671 398.63995597 1913.6726229 421.69673697 1913.65161031 C445.43030502 1913.62993 469.16384104 1913.59845651 492.89737967 1913.55500887 C496.26500036 1913.54884843 499.63262123 1913.54279764 503.00024223 1913.53681374 C503.66290812 1913.53563285 504.325574 1913.53445197 505.00832067 1913.53323531 C516.2389356 1913.51351939 527.46953518 1913.50563822 538.70016485 1913.50065396 C548.7405095 1913.49534988 558.78080023 1913.47896765 568.82111586 1913.45433434 C574.59190785 1913.44048888 580.36260372 1913.43108351 586.13341331 1913.43499184 C620.24531286 1913.45342243 654.01113486 1912.01027863 687.875 1907.6875 C688.70446136 1907.58395203 689.53392273 1907.48040405 690.38851929 1907.37371826 C771.85670856 1897.43372834 771.85670856 1897.43372834 836.65625 1851.68359375 C878.38750916 1796.18006265 883.77318938 1723.90925117 887 1657 C887.06247348 1655.71286224 887.06247348 1655.71286224 887.12620906 1654.39972169 C887.97922028 1636.25928714 888.14702309 1618.14004486 888.13466892 1599.98421226 C888.13300814 1595.88869002 888.13719924 1591.79317254 888.14057809 1587.69765192 C888.14568971 1580.54597116 888.14715674 1573.39429715 888.14612198 1566.24261475 C888.14458687 1555.60641189 888.14878119 1544.97021642 888.1539966 1534.33401501 C888.1636333 1514.22315224 888.16647948 1494.11229203 888.16705366 1474.00142723 C888.16751449 1458.45939691 888.16957947 1442.91736759 888.17275429 1427.3753376 C888.17365194 1422.88978738 888.17454175 1418.40423715 888.17542917 1413.91868693 C888.17576074 1412.24564653 888.17576074 1412.24564653 888.17609901 1410.53880734 C888.18224754 1379.19358323 888.18620016 1347.84835947 888.18575573 1316.50313473 C888.18574015 1315.32296545 888.18572457 1314.14279617 888.18570852 1312.92686419 C888.18562542 1306.94628653 888.18552638 1300.96570886 888.18542381 1294.9851312 C888.18540387 1293.79752763 888.18538392 1292.60992407 888.18536337 1291.38633251 C888.18532294 1288.9847102 888.18528114 1286.58308788 888.18523798 1284.18146556 C888.18462569 1246.84452458 888.19212558 1209.50759268 888.20581055 1172.1706543 C888.22120688 1130.14800038 888.22977462 1088.12535244 888.22884732 1046.10269552 C888.2287727 1041.61242998 888.22872399 1037.12216443 888.22869301 1032.63189888 C888.22868135 1031.52641925 888.2286697 1030.42093961 888.22865769 1029.2819606 C888.22862706 1011.57444287 888.23498364 993.8669331 888.24362527 976.15941773 C888.25214663 958.32817535 888.25305691 940.4969445 888.24651595 922.6657012 C888.24316962 913.02623815 888.24291989 903.38680134 888.2518692 893.74734116 C888.42353724 839.83943013 888.42353724 839.83943013 886 786 C885.88934029 784.41448006 885.77873108 782.8289566 885.66816652 781.24343002 C879.01375313 686.57739418 879.01375313 686.57739418 840 602 C839.59555664 601.46681152 839.19111328 600.93362305 838.77441406 600.38427734 C808.09763353 560.55524438 743.94064519 552.75833812 697.28808594 546.65673828 C688.31378851 545.52022156 679.31750094 544.60469814 670.3125 543.75 C669.49985687 543.67286774 668.68721375 543.59573547 667.84994507 543.51626587 C663.82602432 543.14064945 659.80101617 542.78937064 655.77245617 542.4672451 C652.90232342 542.23767617 650.03322812 542.00294897 647.1651932 541.74841332 C624.22377759 539.72270701 601.33624511 539.68962893 578.32160676 539.68332577 C572.63629509 539.67958065 566.95101139 539.66440094 561.26571655 539.65071106 C551.4497222 539.62859248 541.63373799 539.61348734 531.81772423 539.60334396 C517.62596256 539.58866846 503.43423633 539.56310771 489.24249563 539.53501268 C466.20927998 539.4897045 443.1760609 539.45300737 420.14282227 539.421875 C397.78734434 539.3916379 375.43187891 539.35726586 353.07641602 539.31738281 C352.38549428 539.31615181 351.69457254 539.31492081 350.98271377 539.3136525 C344.04324164 539.30128404 337.10376967 539.28883246 330.1642978 539.27632002 C272.1095499 539.17165027 214.05478568 539.08094549 156 539 C156.00034567 539.94496719 156.00069134 540.88993439 156.00104749 541.86353695 C156.00953049 565.31097803 156.01560707 588.7584189 156.01942956 612.20586121 C156.02132919 623.54679745 156.02390776 634.88773264 156.02828979 646.22866821 C156.0453927 691.45577167 156.04596017 736.68225663 155.82836914 781.90893555 C155.82447079 782.72257919 155.82057243 783.53622284 155.81655595 784.37452236 C155.66124313 816.51870228 155.44108588 848.66263207 155.18408203 880.80615234 C155.169623 882.63379594 155.15517931 884.46143966 155.14074898 886.28908348 C155.11009209 890.16617056 155.07928862 894.04325643 155.04837799 897.92034149 C155.00643867 903.18356331 154.96491902 908.44678836 154.92348266 913.71001416 C153.29775091 1120.10244358 153.29775091 1120.10244358 149 1357 C148.96346313 1358.30690796 148.92692627 1359.61381592 148.88928223 1360.96032715 C146.32891717 1451.10444573 121.84088499 1528.6743934 55.53759766 1592.56005859 C51.55699249 1596.28784667 47.27951695 1599.62720932 43 1603 C41.93911877 1603.88267458 40.88063614 1604.76823778 39.82421875 1605.65625 C8.00281545 1632.1604872 -29.57845526 1651.1319382 -68 1666 C-69.37841064 1666.54068115 -69.37841064 1666.54068115 -70.78466797 1667.09228516 C-136.51477887 1692.72960317 -208.05857336 1702.64748251 -278 1708 C-278.78397156 1708.06165344 -279.56794312 1708.12330688 -280.37567139 1708.18682861 C-333.1762875 1712.31256609 -387.6579981 1711.88098522 -440.47131348 1708.17388916 C-443.1180119 1707.99188472 -445.7653252 1707.82351558 -448.41308594 1707.65771484 C-476.25569608 1705.89552051 -503.96743536 1703.04289032 -531.68400574 1699.91417313 C-534.19218688 1699.63151521 -536.70061998 1699.35119223 -539.20910645 1699.07125854 C-557.43170703 1697.03044784 -575.5959055 1694.72527779 -593.72265625 1691.953125 C-594.50849846 1691.83396351 -595.29434067 1691.71480202 -596.10399628 1691.59202957 C-664.60307255 1681.14114068 -734.923216 1659.95435215 -786 1611 C-786.58539551 1610.44715332 -787.17079102 1609.89430664 -787.77392578 1609.32470703 C-812.94072838 1585.46957248 -830.79501858 1555.71531951 -842 1523 C-842.27295898 1522.20577637 -842.54591797 1521.41155273 -842.82714844 1520.59326172 C-857.60461491 1476.69012121 -859.40320866 1430.108297 -859.13692474 1384.21217752 C-859.11635062 1380.15955522 -859.1098293 1376.10690854 -859.10205078 1372.054245 C-859.07837328 1360.94556348 -859.03432877 1349.83698387 -858.98959351 1338.72837067 C-858.94870931 1328.52767396 -858.91270528 1318.32701367 -858.89316368 1308.12625092 C-858.88503589 1304.13706597 -858.87291395 1300.14799655 -858.84967041 1296.15886879 C-858.68414252 1267.45158705 -859.40121796 1238.68623711 -862.6328125 1210.13671875 C-862.94286906 1207.15734017 -863.03915668 1204.23690454 -863.02294922 1201.24145508 C-863.01963593 1200.44347 -863.01632263 1199.64548492 -863.01290894 1198.82331848 C-863.00864899 1198.22162338 -863.00438904 1197.61992828 -863 1197 C-833.94360417 1192.97885188 -804.84797921 1189.28168193 -775.74169922 1185.64135742 C-769.3162046 1184.83749856 -762.89144679 1184.02789426 -756.4668293 1183.21705914 C-751.46751989 1182.5870492 -746.46773176 1181.96090634 -741.46780014 1181.33585548 C-739.09540072 1181.03863501 -736.72317681 1180.74000991 -734.35113907 1180.43991661 C-731.06417787 1180.02446952 -727.77658111 1179.61446536 -724.48876953 1179.20581055 C-723.52478241 1179.08275543 -722.56079529 1178.95970032 -721.56759644 1178.83291626 C-716.66741723 1178.22990896 -711.93711072 1177.86919228 -707 1178 C-705.18504174 1186.55937559 -704.32869525 1195.14475255 -703.62231445 1203.84960938 C-703.4394674 1206.10077781 -703.2487654 1208.35116885 -703.05664062 1210.6015625 C-700.47700645 1241.18632142 -699.82685968 1271.7962059 -699.98596573 1302.47444344 C-700.0098142 1307.12718937 -700.02255398 1311.77993246 -700.03366089 1316.432724 C-700.06647322 1329.63562818 -700.10844969 1342.83846269 -700.17138672 1356.04125977 C-700.20635422 1363.39612962 -700.22986383 1370.7509515 -700.24159515 1378.10589594 C-700.24822692 1381.95797771 -700.26010193 1385.80985154 -700.28662491 1389.66185188 C-701.65348827 1446.7634513 -701.65348827 1446.7634513 -677 1496 C-663.90794603 1508.48255425 -646.86601956 1515.29509923 -630 1521 C-629.10909668 1521.30147949 -628.21819336 1521.60295898 -627.30029297 1521.91357422 C-596.86203156 1531.96461604 -564.90705362 1536.05983244 -533.18048096 1539.63806152 C-529.70528677 1540.03353834 -526.23125822 1540.43833131 -522.75732422 1540.84472656 C-490.22379598 1544.64741523 -457.71720066 1548.19421867 -425 1550 C-424.21718218 1550.04349831 -423.43436436 1550.08699661 -422.62782478 1550.13181305 C-409.72126421 1550.83509644 -396.85429918 1551.16250735 -383.9296875 1551.16796875 C-382.07056659 1551.17120248 -380.2114459 1551.1745679 -378.35232544 1551.17805481 C-374.48178522 1551.18398029 -370.61126708 1551.18590183 -366.74072266 1551.18530273 C-362.85525814 1551.18522196 -358.96991275 1551.19209819 -355.08447266 1551.20581055 C-323.73592095 1551.31459172 -292.56774859 1550.56858802 -261.375 1547.1875 C-260.58090729 1547.10351959 -259.78681458 1547.01953918 -258.96865845 1546.93301392 C-186.50366627 1539.23363633 -103.28091719 1524.34507849 -49 1472 C-48.20980469 1471.27296875 -47.41960938 1470.5459375 -46.60546875 1469.796875 C-21.0029167 1445.58430389 -11.69646952 1410.54719542 -10.53515625 1376.37109375 C-10.4788932 1374.79915756 -10.4788932 1374.79915756 -10.42149353 1373.19546509 C-10.2962547 1369.60964079 -10.17827836 1366.02364202 -10.0625 1362.4375 C-9.99905396 1360.47960037 -9.99905396 1360.47960037 -9.93432617 1358.48214722 C-7.07203511 1269.08067741 -6.37016215 1179.60522314 -4.02803802 940.9187851 C-3.99930589 936.90298694 -3.97011558 932.88719238 -3.94073486 928.87139893 C-3.60270985 882.64722978 -3.31039881 836.42284934 -3.04687506 790.19819695 C-3.01594277 784.77537021 -2.98468714 779.35254548 -2.953125 773.92972237 C-2.78814293 745.57821685 -2.63720524 717.22665382 -2.5 688.875 C-2.49226563 687.28015455 -2.49226563 687.28015455 -2.484375 685.65309 C-2.1234801 610.99660315 -1.92563025 536.33989808 -1.75787473 461.68276656 C-1.74736317 457.01190485 -1.73678229 452.34104331 -1.72620389 447.67018175 C-1.62716105 403.92033061 -1.5295795 360.17047615 -1.44555664 316.42059326 C-1.39381404 289.48481597 -1.33972379 262.54904483 -1.28125 235.61328125 C-1.27775823 233.99620142 -1.27775823 233.99620142 -1.27419591 232.34645331 C-1.17410306 186.09039654 -1.05280388 139.8348043 -0.74609375 93.57958984 C-0.7409209 92.79569516 -0.73574805 92.01180049 -0.73041844 91.20415142 C-0.52888057 60.8024282 -0.2565692 30.40131238 0 0 Z " fill="#1A1A1A" transform="translate(2270,518)"/>
<path d="M0 0 C5.1731342 0.00442612 10.34626765 0.00284971 15.51940322 0.00209773 C24.42718857 0.00157999 33.33496645 0.00464698 42.24274993 0.01033556 C55.12101254 0.01855426 67.99927163 0.02107625 80.87753658 0.02232356 C101.78496543 0.02449803 122.69239033 0.03111402 143.59981704 0.04062617 C163.87781163 0.04984221 184.15580514 0.05690239 204.43380141 0.06113398 C205.68925315 0.0613967 206.94470489 0.06165943 208.23820062 0.06193011 C214.53808018 0.0632354 220.83795975 0.06449905 227.13783932 0.06574202 C279.18490182 0.07606454 331.23195697 0.0944754 383.27901626 0.11606562 C383.27901626 52.25606562 383.27901626 104.39606562 383.27901626 158.11606562 C365.28467055 158.12541132 347.29032485 158.13475703 328.75069594 158.14438593 C316.72577294 158.15121412 304.70085024 158.1581097 292.67592788 158.16593134 C291.91161696 158.16642654 291.14730603 158.16692174 290.35983418 158.16743194 C264.57867822 158.18420655 238.79752994 158.20643308 213.01638198 158.2327038 C212.17348921 158.23356131 211.33059644 158.23441882 210.46216146 158.23530232 C192.1342748 158.25397737 173.80638917 158.27353088 155.4785044 158.29398657 C146.48769213 158.30401585 137.49687964 158.31385146 128.50606704 158.32358515 C127.16418103 158.32504286 127.16418103 158.32504286 125.79518621 158.32653002 C96.91206526 158.35781569 68.02895359 158.37636613 39.14581865 158.38815809 C9.41076675 158.40036626 -20.32424658 158.42573018 -50.05927279 158.46714176 C-54.28005402 158.47301399 -58.50083543 158.47873917 -62.72161698 158.48437464 C-63.9674176 158.48604483 -63.9674176 158.48604483 -65.2383859 158.48774876 C-78.49126278 158.50514095 -91.74410946 158.5090739 -104.99699623 158.50769483 C-118.39113093 158.50659845 -131.78519011 158.52034312 -145.17929623 158.5482299 C-152.40787844 158.56289279 -159.63633145 158.57167342 -166.86492562 158.56186831 C-306.79988275 156.18139967 -306.79988275 156.18139967 -429.90848374 210.74106562 C-477.94446951 261.18662349 -480.93432942 349.59318827 -484.84598374 415.55356562 C-484.95946153 417.43906123 -484.95946153 417.43906123 -485.07523179 419.36264765 C-486.50500676 445.41524784 -486.87475387 471.50479519 -486.8494513 497.59126187 C-486.84685051 501.46513626 -486.85019909 505.33900713 -486.85269463 509.21288097 C-486.85626233 515.96290698 -486.85622438 522.71292495 -486.85364747 529.4629513 C-486.84982573 539.50160984 -486.85181884 549.54026174 -486.85485578 559.57892024 C-486.86009264 577.52114779 -486.85967667 595.46337176 -486.85677687 613.40559965 C-486.85425143 629.11058456 -486.85360918 644.81556816 -486.85479951 660.52055323 C-486.85487589 661.5663249 -486.85495228 662.61209656 -486.85503098 663.68955828 C-486.85534237 667.9357864 -486.85566078 672.18201452 -486.85599074 676.42824264 C-486.85904326 716.1851963 -486.85628676 755.94214769 -486.85089385 795.69910099 C-486.84615037 830.93607219 -486.84657245 866.17303977 -486.85135484 901.41001093 C-486.85672274 941.09282395 -486.8588253 980.77563496 -486.85574257 1020.45844829 C-486.85542191 1024.69773718 -486.85510906 1028.93702606 -486.85479951 1033.17631495 C-486.85472043 1034.21996623 -486.85464135 1035.26361751 -486.85455988 1036.33889458 C-486.85342773 1052.02214394 -486.85474271 1067.70539184 -486.85727906 1083.388641 C-486.86015252 1101.24426331 -486.85939355 1119.09988151 -486.85399832 1136.95550331 C-486.85134019 1146.04984615 -486.85020821 1155.14418228 -486.85364747 1164.23852503 C-486.95314584 1227.23905805 -486.95314584 1227.23905805 -484.40848374 1290.17856562 C-484.34473557 1291.21749964 -484.28098741 1292.25643366 -484.21530747 1293.32685053 C-480.14533908 1358.9614599 -472.64570382 1436.16904749 -422.40848374 1484.49106562 C-416.37607995 1489.71914891 -409.78469057 1493.50764086 -402.72098374 1497.11606562 C-401.60465562 1497.70001093 -400.48832749 1498.28395625 -399.33817124 1498.88559687 C-360.56385249 1518.09926936 -314.59995369 1523.86635074 -272.03348374 1528.36606562 C-271.30415635 1528.44328852 -270.57482896 1528.52051142 -269.82340074 1528.60007441 C-264.46040374 1529.15875165 -259.09242482 1529.64630897 -253.72098374 1530.11606562 C-252.76988537 1530.19930423 -251.81878699 1530.28254283 -250.83886745 1530.36830382 C-233.97015378 1531.81021036 -217.24145426 1532.41006673 -200.31615281 1532.39453852 C-197.77672031 1532.39955703 -195.2372894 1532.40543729 -192.69786066 1532.41209126 C-187.23304101 1532.42447794 -181.76826725 1532.43093929 -176.30343461 1532.43185198 C-168.17777118 1532.43324282 -160.05215248 1532.44611387 -151.92650424 1532.46113973 C-138.24992732 1532.48611488 -124.57335426 1532.5020736 -110.89675927 1532.51272166 C-97.37392247 1532.52328009 -83.8511002 1532.53795154 -70.32827401 1532.55800211 C-69.48445845 1532.55925098 -68.64064288 1532.56049985 -67.77125715 1532.56178656 C-63.48517155 1532.56815115 -59.19908606 1532.57458813 -54.91300061 1532.58105294 C-24.63000842 1532.62659976 5.65298849 1532.66309677 35.93599868 1532.69419062 C65.33802394 1532.72440081 94.74003962 1532.75876066 124.14205337 1532.79868281 C125.04987627 1532.79991381 125.95769917 1532.80114482 126.89303185 1532.80241312 C136.01055617 1532.81478099 145.12808038 1532.82723263 154.24560451 1532.8397456 C172.81564512 1532.8652294 191.38568647 1532.89015446 209.95572829 1532.91474116 C211.23619041 1532.91643752 211.23619041 1532.91643752 212.54252046 1532.91816816 C238.68414982 1532.95277134 264.82578135 1532.98500854 290.96741652 1533.01489985 C291.70896133 1533.01574868 292.45050614 1533.01659752 293.21452201 1533.01747207 C323.23601847 1533.05180117 353.25751771 1533.08361779 383.27901626 1533.11606562 C383.27901626 1584.26606562 383.27901626 1635.41606562 383.27901626 1688.11606562 C314.25830838 1688.29724266 314.25830838 1688.29724266 292.83986831 1688.34691584 C291.69412237 1688.34957985 291.69412237 1688.34957985 290.52523005 1688.35229767 C264.69909543 1688.412181 238.87295348 1688.45932749 213.04677749 1688.49715388 C212.20064329 1688.49839639 211.3545091 1688.49963891 210.48273448 1688.50091907 C192.07328036 1688.52788456 173.66382401 1688.55281196 155.25436433 1688.57565359 C146.22026343 1688.58687504 137.18616315 1688.59854465 128.15206313 1688.61045039 C126.80389593 1688.61221563 126.80389593 1688.61221563 125.42849302 1688.61401654 C96.54128012 1688.65204909 67.6542306 1688.71940392 38.76711581 1688.80274061 C8.9652525 1688.88855566 -20.83652126 1688.94324393 -50.63850597 1688.96130053 C-54.89308263 1688.96389216 -59.14765899 1688.96682284 -63.40223527 1688.96996081 C-64.23921476 1688.97056762 -65.07619425 1688.97117442 -65.93853676 1688.97179962 C-77.54099015 1688.98096427 -89.14322207 1689.01080924 -100.74558172 1689.05779471 C-223.21993373 1689.55322408 -223.21993373 1689.55322408 -282.98367906 1684.12363398 C-283.98061325 1684.03509581 -284.97754745 1683.94655764 -286.00469178 1683.8553365 C-307.47352524 1681.94151933 -328.58979995 1679.09114271 -349.70456529 1674.7249676 C-351.01055074 1674.45807728 -351.01055074 1674.45807728 -352.34291974 1674.18579524 C-370.18901274 1670.48797262 -387.0531777 1664.49544091 -404.0163939 1657.9212414 C-408.73309246 1656.09994196 -413.47840826 1654.36375402 -418.23270249 1652.64340937 C-433.65965859 1647.04806456 -448.97439987 1641.35804336 -463.72098374 1634.11606562 C-464.47057359 1633.75545039 -465.22016343 1633.39483515 -465.99246812 1633.02329218 C-501.91253834 1615.61072639 -536.72340547 1588.18325209 -560.72098374 1556.11606562 C-561.22371812 1555.46267207 -561.72645249 1554.80927851 -562.24442124 1554.13608515 C-571.34245108 1542.3102186 -579.38300067 1530.10385345 -586.72098374 1517.11606562 C-587.15362535 1516.3592248 -587.58626695 1515.60238398 -588.0320189 1514.82260859 C-622.13788575 1454.66892642 -632.08519575 1381.41557515 -637.90848374 1313.42856562 C-637.98738847 1312.52801447 -638.06629319 1311.62746333 -638.14758897 1310.69962275 C-638.76808733 1303.51091621 -639.25467 1296.31624539 -639.72098374 1289.11606562 C-639.80526392 1287.84361546 -639.88954409 1286.57116529 -639.9763782 1285.26015604 C-642.30647133 1249.07981067 -642.01032322 1212.84678573 -641.98431985 1176.6110804 C-641.97779988 1166.93967261 -641.98319416 1157.26827915 -641.98872781 1147.59687203 C-641.99918481 1128.65492448 -641.99837646 1109.71299053 -641.99256999 1090.77104172 C-641.98751362 1074.19210776 -641.98623714 1057.61317875 -641.98861527 1041.03424418 C-641.98876804 1039.92910779 -641.98892081 1038.82397139 -641.98907821 1037.68534602 C-641.98970102 1033.19779273 -641.99033784 1028.71023945 -641.99099774 1024.22268617 C-641.99709871 982.23210245 -641.99159611 940.24152733 -641.98080395 898.25094493 C-641.97131597 861.05217196 -641.97216287 823.85341269 -641.98172593 786.65463984 C-641.99246626 744.73766424 -641.9966645 702.82069621 -641.9905014 660.90371943 C-641.98986009 656.42431915 -641.98923441 651.94491887 -641.98861527 647.46551859 C-641.98845712 646.36279916 -641.98829896 645.26007972 -641.98813602 644.12394455 C-641.98587372 627.5683389 -641.98849786 611.01273877 -641.99357438 594.45713389 C-641.99932639 575.60609942 -641.99779264 556.75508054 -641.98701289 537.90404798 C-641.98170371 528.3065029 -641.97941889 518.70898318 -641.9863112 509.11143839 C-642.03704281 433.76944632 -642.03704281 433.76944632 -639.72098374 397.11606562 C-639.63891285 395.80383029 -639.55684196 394.49159495 -639.47228408 393.13959491 C-639.02716847 386.18666762 -638.50871224 379.2447658 -637.90848374 372.30356562 C-637.82450334 371.30730158 -637.74052293 370.31103755 -637.65399766 369.28458369 C-633.17674299 316.44935331 -625.51259819 263.57301954 -608.72098374 213.11606562 C-608.41080308 212.1735998 -608.10062242 211.23113398 -607.78104234 210.26010859 C-597.11740616 178.23536514 -581.04119729 148.46394221 -558.72098374 123.11606562 C-558.13059312 122.41481562 -557.54020249 121.71356562 -556.93192124 120.99106562 C-548.21150823 110.68121772 -538.40254679 101.35853159 -527.72098374 93.11606562 C-527.1560521 92.66940547 -526.59112046 92.22274531 -526.00906968 91.76255 C-515.15979471 83.19214464 -503.74852232 75.92047111 -491.72098374 69.11606562 C-490.94384019 68.67520625 -490.16669663 68.23434687 -489.36600327 67.78012812 C-412.43346694 24.61288138 -316.49159046 16.50992853 -119.34598374 2.49106562 C-118.58376512 2.45946093 -117.82154649 2.42785624 -117.03623033 2.39529383 C-116.2876677 2.36427828 -115.53910508 2.33326273 -114.76785874 2.30130732 C-114.11833238 2.27435156 -113.46880601 2.24739581 -112.79959702 2.21962321 C-75.20286019 0.694114 -37.62727701 -0.04063875 0 0 Z " fill="#1A1A1A" transform="translate(1828.7209837436676,898.883934378624)"/>
<path d="M0 0 C523.05 0 1046.1 0 1585 0 C1585 44.55 1585 89.1 1585 135 C1061.95 135 538.9 135 0 135 C0 90.45 0 45.9 0 0 Z " fill="#1A1A1A" transform="translate(1458,2698)"/>
<path d="M0 0 C14.85 0 29.7 0 45 0 C57.01341799 15.44582313 67.08995199 31.55277264 76.5 48.67578125 C79.89415419 54.84757335 83.42798254 60.92986264 87 67 C92.37294345 76.14854559 97.59077911 85.37405621 102.75 94.64453125 C106.74964452 101.81353695 110.84348044 108.92092763 115 116 C119.76429563 124.11419099 124.42411851 132.27809188 129 140.5 C134.09830924 149.65723315 139.31308055 158.7369317 144.61376953 167.77832031 C149.08279118 175.40799465 153.49311147 183.0700588 157.875 190.75 C158.37105743 191.61899933 158.37105743 191.61899933 158.87713623 192.5055542 C162.3279057 198.55117131 165.77315375 204.59991398 169.21340942 210.65151978 C170.63326237 213.14821639 172.05483136 215.64393369 173.47662354 218.13952637 C174.459932 219.8671044 175.44071344 221.59612003 176.42138672 223.32519531 C180.78726121 230.98868621 185.33505512 238.51601238 190 246 C197.12077539 233.89926111 204.17272039 221.76913143 211 209.5 C216.13626659 200.2706588 221.40212563 191.12762979 226.75 182.01953125 C230.92244156 174.89471475 234.98481022 167.71446163 239 160.5 C244.09830924 151.34276685 249.31308055 142.2630683 254.61376953 133.22167969 C259.08278735 125.5920119 263.49361631 117.93022514 267.875 110.25 C268.37504547 109.3735231 268.37504547 109.3735231 268.88519287 108.4793396 C270.5800349 105.5080802 272.27407984 102.53636728 273.96777344 99.56445312 C275.97873996 96.03639938 277.99276211 92.51009753 280.0078125 88.984375 C280.33759094 88.40736343 280.66736938 87.83035187 281.00714111 87.2358551 C282.33581302 84.91124767 283.66461189 82.58671283 284.9934082 80.26217651 C288.73614641 73.71457029 292.47644669 67.16559552 296.2109375 60.61328125 C299.55809549 54.74103926 302.91326381 48.87345415 306.27539062 43.00976562 C307.33343294 41.16328408 308.38981378 39.3158478 309.44335938 37.46679688 C316.03037483 25.91709807 323.28340552 14.87823627 330.76000977 3.88500977 C332.03663913 2.02499485 332.03663913 2.02499485 333 0 C348.18 0 363.36 0 379 0 C379 183.48 379 366.96 379 556 C363.16 556 347.32 556 331 556 C330.505 331.765 330.505 331.765 330 103 C325.71 110.59 321.42 118.18 317 126 C314.74028605 129.90356804 312.47633264 133.80141911 310.1875 137.6875 C305.0903243 146.38527381 300.0557415 155.11724958 295.0625 163.875 C288.03417892 176.2003733 280.95759481 188.49722214 273.85888672 200.78222656 C270.73675395 206.18670645 267.61858796 211.59347412 264.5 217 C263.25001878 219.1666775 262.00001879 221.33334417 260.75 223.5 C260.13125 224.5725 259.5125 225.645 258.875 226.75 C257 230 255.125 233.25 253.25 236.5 C252.63108887 237.57282227 252.01217773 238.64564453 251.37451172 239.75097656 C250.12628966 241.91447476 248.87791761 244.07788643 247.62939453 246.24121094 C244.47594744 251.70565017 241.32523904 257.17163645 238.1796875 262.640625 C232.04089825 273.30855676 225.87714476 283.96050697 219.625 294.5625 C219.07118652 295.50319336 218.51737305 296.44388672 217.94677734 297.41308594 C217.1880835 298.69554199 217.1880835 298.69554199 216.4140625 300.00390625 C215.9701416 300.75486572 215.5262207 301.5058252 215.06884766 302.27954102 C214 304 214 304 213 305 C211.52645652 305.09304018 210.04849409 305.11746265 208.57202148 305.11352539 C207.63112167 305.11344986 206.69022186 305.11337433 205.72080994 305.11329651 C204.69790359 305.10813522 203.67499725 305.10297394 202.62109375 305.09765625 C201.058395 305.09553383 201.058395 305.09553383 199.46412659 305.09336853 C196.12188906 305.0877508 192.77971743 305.0751953 189.4375 305.0625 C187.17773534 305.05748728 184.91796963 305.05292398 182.65820312 305.04882812 C177.10544609 305.03777561 171.55272775 305.02102024 166 305 C165.58862793 304.27748047 165.17725586 303.55496094 164.75341797 302.81054688 C157.55589999 290.17548066 150.34813002 277.54829585 143 265 C137.9680751 256.40484283 132.99610865 247.77687759 128.0625 239.125 C121.03396493 226.79974804 113.95759566 214.50277933 106.85888672 202.21777344 C103.73675395 196.81329355 100.61858796 191.40652588 97.5 186 C96.25001878 183.8333225 95.00001879 181.66665583 93.75 179.5 C86.25 166.5 86.25 166.5 84.3737793 163.24780273 C83.1279423 161.08840605 81.88201182 158.92906331 80.63598633 156.76977539 C77.44651047 151.24232403 74.25883115 145.71384879 71.07421875 140.18359375 C70.09775391 138.48879883 70.09775391 138.48879883 69.1015625 136.75976562 C67.88349096 134.64554146 66.6659806 132.53099381 65.44921875 130.41601562 C60.35508728 121.57653976 55.17353318 112.79500641 50 104 C49.67 253.16 49.34 402.32 49 556 C32.83 556 16.66 556 0 556 C0 372.52 0 189.04 0 0 Z " fill="#1A1A1A" transform="translate(758,3144)"/>
<path d="M0 0 C304.94304858 0 304.94304858 0 339 34 C339.77085937 34.75925781 340.54171875 35.51851562 341.3359375 36.30078125 C359.91897981 55.67661547 365.89697165 82.86696882 369.25 108.625 C369.41322754 109.87410156 369.57645508 111.12320313 369.74462891 112.41015625 C372.02849393 131.1091491 372.14956381 149.76957785 372.14526367 168.58374023 C372.1482618 171.22235752 372.15163854 173.86097201 372.15544128 176.49958801 C372.16368098 182.88300163 372.16649308 189.266406 372.16705366 195.64982449 C372.1675321 200.84986969 372.16960298 206.04991189 372.17275429 211.24995613 C372.1815432 226.05864581 372.18617652 240.86732831 372.18542381 255.67602061 C372.18536388 256.86880862 372.18536388 256.86880862 372.18530273 258.08569336 C372.18526185 258.88187917 372.18522097 259.67806498 372.18517885 260.49837763 C372.18477305 273.3797259 372.19433066 286.26104484 372.2084411 299.14238464 C372.22288278 312.43316278 372.22970701 325.7239267 372.22884732 339.01471287 C372.22851799 346.45054527 372.23114754 353.88634693 372.24202538 361.32217216 C372.25123381 367.65642289 372.25322252 373.99062897 372.24651595 380.32488357 C372.24330169 383.54248732 372.24414077 386.75999024 372.2518692 389.97758865 C372.34786992 432.77101884 371.35336338 482.86952062 342 517 C340.83791016 518.45986328 340.83791016 518.45986328 339.65234375 519.94921875 C324.56509199 538.01783518 300.71044935 544.82094505 279 551 C278.01563965 551.28278809 277.0312793 551.56557617 276.01708984 551.85693359 C186.95025687 574.96655703 92.01606073 556 0 556 C0 372.52 0 189.04 0 0 Z M51 51 C51 200.49 51 349.98 51 504 C161.4651726 517.32562098 161.4651726 517.32562098 299.4375 487.95703125 C313.52191999 473.75365501 318.22017508 453.26246392 320 434 C320.0832166 433.17109725 320.1664332 432.3421945 320.25217152 431.48817348 C321.3608606 418.64518553 321.14807526 405.76874834 321.14526367 392.88891602 C321.14771944 390.14587776 321.15163538 387.40284197 321.15544128 384.6598053 C321.1637036 378.00714017 321.16649414 371.3544839 321.16705366 364.70181406 C321.16753106 359.285201 321.16959689 353.86859083 321.17275429 348.45197868 C321.18154983 333.04601853 321.18617554 317.6400653 321.18542381 302.23410261 C321.18538386 301.40572815 321.1853439 300.57735368 321.18530273 299.72387695 C321.18526185 298.89447375 321.18522097 298.06507054 321.18517885 297.21053391 C321.18477299 283.7895079 321.19433034 270.36851002 321.2084411 256.94749213 C321.22286384 243.11897411 321.22970802 229.29046976 321.22884732 215.46194404 C321.22851732 207.71765988 321.23117719 199.9734052 321.24202538 192.22912788 C321.25120855 185.63189414 321.25324252 179.03470322 321.24651595 172.43746579 C321.24328923 169.08265429 321.2441758 165.72799037 321.2518692 162.37317657 C322.25965919 113.46972297 322.25965919 113.46972297 303.1875 69.93359375 C260.41978103 30.0113077 55.95106329 51 51 51 Z " fill="#1A1A1A" transform="translate(3130,3144)"/>
<path d="M0 0 C1.16463776 0.00060425 2.32927551 0.0012085 3.52920532 0.00183105 C22.18229608 0.0280124 40.67208873 0.40507323 59.25 2.1875 C60.27846039 2.28578094 60.27846039 2.28578094 61.32769775 2.38604736 C96.62393551 5.79562135 134.06522699 10.07017737 161.25 35.1875 C162.02601563 35.87199219 162.80203125 36.55648437 163.6015625 37.26171875 C185.52016197 57.63622444 190.93786424 88.82075976 194.25 117.1875 C194.38277344 118.30898437 194.51554687 119.43046875 194.65234375 120.5859375 C195.69248641 131.44331701 195.25 142.25788199 195.25 153.1875 C179.08 153.1875 162.91 153.1875 146.25 153.1875 C145.92 146.5875 145.59 139.9875 145.25 133.1875 C144.7230324 128.54375267 144.16306851 123.98204517 143.4375 119.375 C143.26009277 118.22700928 143.08268555 117.07901855 142.89990234 115.89624023 C139.71358587 93.24724439 139.71358587 93.24724439 126.875 75.375 C70.30550314 40.9159997 -24.96062159 45.02540402 -87.24609375 59.84619141 C-94.94466547 61.81140438 -102.42640031 64.36970628 -109.875 67.125 C-110.72811768 67.43663086 -111.58123535 67.74826172 -112.46020508 68.06933594 C-121.47205811 71.5434013 -129.60918757 75.96065676 -134.09375 84.8515625 C-136.60346563 91.27846942 -138.48141541 97.63782998 -139.9375 104.375 C-140.0921875 105.07898926 -140.246875 105.78297852 -140.40625 106.50830078 C-143.47726561 121.69981386 -144.12643621 136.98792607 -144.0625 152.4375 C-144.06100952 153.333479 -144.05951904 154.22945801 -144.0579834 155.15258789 C-144.01756713 168.6926419 -143.48484893 181.8861893 -140.75 195.1875 C-140.60014648 195.95336426 -140.45029297 196.71922852 -140.29589844 197.50830078 C-137.43453492 214.63877107 -137.43453492 214.63877107 -128.4375 228.5625 C-103.68942209 243.91547426 -72.30513312 248.99398241 -43.75 251.1875 C-42.66412598 251.27217529 -41.57825195 251.35685059 -40.45947266 251.4440918 C-29.35078766 252.22672637 -18.25186075 252.41188241 -7.11920166 252.57510376 C126.7447974 254.63394934 126.7447974 254.63394934 160.25 288.1875 C161.05050781 288.91710938 161.85101562 289.64671875 162.67578125 290.3984375 C182.87816504 309.17025525 189.45137098 336.94823062 193.25 363.1875 C193.43006592 364.37714355 193.43006592 364.37714355 193.61376953 365.59082031 C200.21359435 411.13059511 198.77348172 469.90075673 172.25 509.1875 C169.44138582 512.73472796 166.40170287 515.94792438 163.25 519.1875 C162.16231306 520.53817228 161.07879071 521.8922117 160 523.25 C141.31168194 544.35930472 109.47632168 548.53670848 83.25 552.4375 C82.24590088 552.58864258 81.24180176 552.73978516 80.20727539 552.89550781 C56.38776866 556.17228492 32.48904059 556.53843552 8.49316406 556.50317383 C5.09882272 556.49856426 1.70484167 556.5054041 -1.68945312 556.52368164 C-123.09620078 557.17054251 -123.09620078 557.17054251 -163.375 519 C-168.95384889 513.28757303 -172.98163122 507.20308018 -176.75 500.1875 C-177.35585937 499.06988281 -177.96171875 497.95226563 -178.5859375 496.80078125 C-189.61901018 474.90326363 -192.63309206 449.86991896 -195 425.75 C-195.08024414 424.96044922 -195.16048828 424.17089844 -195.24316406 423.35742188 C-196.0338535 414.25897687 -195.75 405.41075203 -195.75 396.1875 C-178.92 396.1875 -162.09 396.1875 -144.75 396.1875 C-144.5953125 402.9009375 -144.5953125 402.9009375 -144.4375 409.75 C-143.83371658 445.57134032 -143.83371658 445.57134032 -130.75 478.1875 C-103.07415296 503.32517412 -49.34136624 505.21275607 -14.32421875 505.42578125 C-13.33653378 505.43304733 -13.33653378 505.43304733 -12.32889557 505.44046021 C-7.36510325 505.47646762 -2.40141117 505.49273987 2.5625 505.5 C3.29035076 505.50129787 4.01820152 505.50259575 4.76810837 505.50393295 C26.50262894 505.53331642 47.80660174 505.1856396 69.25 501.1875 C70.36375 500.98962891 71.4775 500.79175781 72.625 500.58789062 C105.57807896 495.22550141 105.57807896 495.22550141 132.25 477.1875 C137.85572628 467.18216948 140.21936677 456.3684337 142.25 445.1875 C142.40098145 444.42131348 142.55196289 443.65512695 142.70751953 442.86572266 C149.41081679 408.11993698 148.38394712 365.3325634 132.65625 333.203125 C120.90330398 316.35723571 88.00422593 312.04019525 69.50830078 308.71923828 C63.75426872 307.78020922 57.98205147 307.07398624 52.1875 306.4375 C50.61355469 306.26408081 50.61355469 306.26408081 49.0078125 306.0871582 C33.14190812 304.50800191 17.17383415 304.15926084 1.24005127 303.9801178 C-124.57527696 302.55932604 -124.57527696 302.55932604 -163.8125 265.5625 C-192.23627829 236.33679693 -196.16078211 187.70709436 -196.05249023 149.12084961 C-195.49216442 110.59388902 -190.36848225 65.94357027 -162.55078125 36.890625 C-155.73045908 30.35213432 -148.01237127 25.65641607 -139.75 21.1875 C-139.15590332 20.86507324 -138.56180664 20.54264648 -137.94970703 20.21044922 C-97.75503029 -1.12029981 -44.42352278 -0.04281059 0 0 Z " fill="#1A1A1A" transform="translate(2369.75,3143.8125)"/>
<path d="M0 0 C0.72064636 0.06552063 1.44129272 0.13104126 2.18377686 0.19854736 C36.8461134 3.39015838 71.189073 7.82156583 98 32 C98.85335937 32.75925781 99.70671875 33.51851562 100.5859375 34.30078125 C125.92528788 58.11977061 132.04637119 96.79165641 133.09538126 130.02141654 C133.1332836 133.18902423 133.14293525 136.3553447 133.14044189 139.5231781 C133.14489858 141.32708821 133.14489858 141.32708821 133.1494453 143.16744095 C133.15656379 146.47062439 133.15929975 149.77375575 133.16004276 153.07694304 C133.16190945 156.65401313 133.16946498 160.23107232 133.17617798 163.80813599 C133.18970042 171.61697322 133.19577735 179.42580529 133.20018864 187.23465228 C133.20296314 192.12555787 133.20720278 197.01646152 133.21169281 201.9073658 C133.2238808 215.48990854 133.23417891 229.07244974 133.2375679 242.65499783 C133.23778747 243.52266161 133.23800703 244.3903254 133.23823325 245.28428203 C133.23845153 246.15385606 133.23866981 247.0234301 133.2388947 247.91935486 C133.23933814 249.68101847 133.23978471 251.44268209 133.24023438 253.2043457 C133.2404558 254.07816527 133.24067723 254.95198484 133.24090537 255.85228378 C133.24484267 269.97101357 133.26226604 284.08969142 133.2855939 298.2084012 C133.30943604 312.75783282 133.32177567 327.30723855 133.32293582 341.85668999 C133.32384575 350.00362961 133.32942299 358.15050165 133.34775543 366.29742241 C133.36333168 373.24332183 133.36817594 380.1891328 133.36001733 387.13504642 C133.35617072 390.66477861 133.35673682 394.19433373 133.37107468 397.72404289 C133.51577353 440.75056957 130.76680472 486.46453097 99.83984375 519.29296875 C78.79070112 539.69222361 50.66198019 546.5984949 22.5 550.1875 C21.29931885 550.34234863 20.0986377 550.49719727 18.86157227 550.65673828 C-6.0749647 553.62656624 -30.97178888 554.35379201 -56.05322266 554.31567383 C-59.3368913 554.31105932 -62.62018792 554.31792702 -65.90380859 554.33618164 C-98.80758542 554.51710291 -131.5616713 552.84531126 -164 547 C-164.80727539 546.85481934 -165.61455078 546.70963867 -166.44628906 546.56005859 C-189.04358167 542.30650829 -209.60365377 533.34057635 -226 517 C-227.13695312 515.89785156 -227.13695312 515.89785156 -228.296875 514.7734375 C-259.25970046 482.84969676 -259.49762658 427.3620765 -259.38818359 385.84204102 C-259.39226471 383.17857832 -259.39751002 380.51513996 -259.40411377 377.85168457 C-259.41725821 371.45249818 -259.41466132 365.05341898 -259.40587585 358.65422887 C-259.39902142 353.43971885 -259.39821547 348.22523828 -259.4014473 343.01072502 C-259.401907 342.26051579 -259.40236669 341.51030655 -259.40284032 340.73736371 C-259.40379978 339.21197239 -259.40477242 337.68658109 -259.4057581 336.16118979 C-259.41425562 321.95106811 -259.40456768 307.74100507 -259.388357 293.53089302 C-259.37496177 281.41501592 -259.37728642 269.29922515 -259.39111328 257.18334961 C-259.40727467 243.01578402 -259.41342931 228.84826947 -259.40427649 214.68069595 C-259.40332113 213.16149422 -259.40237801 211.64229249 -259.4014473 210.12309074 C-259.40098447 209.37617213 -259.40052164 208.62925351 -259.40004479 207.859701 C-259.39748611 202.66963867 -259.40181639 197.47960989 -259.40888596 192.28955269 C-259.56142646 69.325011 -259.56142646 69.325011 -224.66796875 33.61328125 C-172.97880029 -15.57075788 -65.46995728 -6.00964222 0 0 Z M-193.3125 75.125 C-210.36252696 97.26602093 -208.45314889 135.55921758 -208.38818359 161.70532227 C-208.39061348 164.4991019 -208.39750143 167.29286696 -208.40411377 170.0866394 C-208.41731414 176.82486086 -208.41463559 183.56298095 -208.40587585 190.30120606 C-208.39904548 195.78671362 -208.39820541 201.27219317 -208.4014473 206.75770378 C-208.401907 207.54434007 -208.40236669 208.33097636 -208.40284032 209.14145012 C-208.40379969 210.74046049 -208.40477233 212.33947085 -208.4057581 213.9384812 C-208.4142717 228.86176475 -208.40454132 243.78499262 -208.388357 258.70826703 C-208.37495488 271.46008018 -208.37728891 284.21181136 -208.39111328 296.96362305 C-208.4072363 311.84229388 -208.41345085 326.72091618 -208.40427649 341.59959453 C-208.40332104 343.19176701 -208.40237792 344.78393949 -208.4014473 346.37611198 C-208.40098447 347.15909555 -208.40052164 347.94207911 -208.40004479 348.74878945 C-208.39747516 354.21605338 -208.40178156 359.68328603 -208.40888596 365.15054512 C-208.4173763 371.82990755 -208.41486498 378.5091645 -208.39904372 385.18851513 C-208.39126104 388.58395216 -208.38956146 391.97907249 -208.39799118 395.37452888 C-208.89121436 438.7340909 -208.89121436 438.7340909 -192.5546875 477.8046875 C-173.17267237 496.60232027 -134.90122185 500.22068994 -109.515625 502.65234375 C-108.5318176 502.7472579 -108.5318176 502.7472579 -107.5281353 502.84408951 C-92.88761251 504.22890232 -78.27941879 504.47818536 -63.57630157 504.38672256 C-61.52024683 504.37475404 -59.46422259 504.36782062 -57.40814209 504.36190796 C9.353848 504.44440501 9.353848 504.44440501 69 478 C78.63177172 465.5240638 79.87647125 447.11787134 82 432 C82.1702428 430.86814679 82.34048559 429.73629358 82.51588726 428.57014179 C83.19575913 423.06111769 83.14809502 417.56397226 83.14717102 412.02030945 C83.15268605 410.23165985 83.15268605 410.23165985 83.1583125 408.40687591 C83.16739218 405.11360673 83.17203867 401.82036684 83.17470181 398.52708733 C83.17862489 394.96770663 83.18820219 391.40834009 83.19691467 387.84896851 C83.21662993 379.25736185 83.22674218 370.66575411 83.23564246 362.07413051 C83.24003627 358.01562962 83.24540048 353.95713002 83.25063133 349.89863014 C83.26764394 336.38315827 83.28213189 322.86768717 83.28938007 309.35220623 C83.2912896 305.84881781 83.29320998 302.34542941 83.29516602 298.84204102 C83.29564976 297.97141605 83.2961335 297.10079109 83.2966319 296.20378355 C83.30490884 282.14163005 83.33020589 268.07956225 83.36274669 254.01744606 C83.39597571 239.53821186 83.41384332 225.05902094 83.41702431 210.57974845 C83.41917559 202.46744045 83.42771817 194.35525717 83.45348549 186.24298668 C83.47541074 179.3247308 83.48313788 172.40662989 83.47351871 165.4883432 C83.46903512 161.97098364 83.47050254 158.45394227 83.49028015 154.93662834 C83.60304427 130.90161333 81.89834246 106.8805108 74 84 C73.5359375 82.62521484 73.5359375 82.62521484 73.0625 81.22265625 C68.89694333 71.70370838 57.62708734 66.86972207 48.50097656 63.18701172 C-7.33540108 42.08043672 -147.5902714 27.43994845 -193.3125 75.125 Z " fill="#1A1A1A" transform="translate(1958,3146)"/>
<path d="M0 0 C8.94629481 0.02278798 17.89259351 0.03346002 26.83891034 0.04340726 C45.16978098 0.06404562 63.50057113 0.10056734 81.83140278 0.14405447 C81.83140278 17.30405447 81.83140278 34.46405447 81.83140278 52.14405447 C72.81142963 52.16592825 72.81142963 52.16592825 63.60923481 52.18824393 C43.66436552 52.23874869 23.71957255 52.30522471 3.77477932 52.37976938 C-8.30887633 52.42454792 -20.39250368 52.46400289 -32.47621441 52.49049002 C-43.02039951 52.51361654 -53.56449369 52.54717495 -64.10860646 52.59275603 C-69.68069868 52.61649266 -75.25270196 52.63534847 -80.82484341 52.64166838 C-121.06612915 52.48972361 -121.06612915 52.48972361 -160.66859722 59.01905447 C-162.15553082 59.36516775 -162.15553082 59.36516775 -163.67250347 59.71827322 C-174.10946927 62.28969958 -183.04770222 65.96271197 -189.16859722 75.14405447 C-216.25859222 123.64876619 -203.79677745 209.5002405 -204.16859722 251.14405447 C-109.78859722 251.14405447 -15.40859722 251.14405447 81.83140278 251.14405447 C81.83140278 269.29405447 81.83140278 287.44405447 81.83140278 306.14405447 C-12.54859722 306.14405447 -106.92859722 306.14405447 -204.16859722 306.14405447 C-212.17307128 392.23019719 -212.17307128 392.23019719 -183.46547222 486.07374197 C-159.09141647 509.93573773 -104.94954538 504.61378882 -73.65178847 504.65016538 C-68.16923561 504.65966318 -62.68676066 504.68587391 -57.20425701 504.71017081 C-46.86364291 504.75353016 -36.52304418 504.78226351 -26.18236738 504.80549419 C-14.3923653 504.83271155 -2.6024428 504.87661152 9.18750203 504.92178291 C33.40210369 505.0141905 57.61669811 505.08386934 81.83140278 505.14405447 C81.83140278 521.97405447 81.83140278 538.80405447 81.83140278 556.14405447 C56.4894977 556.21216942 31.14766845 556.26726546 5.80569458 556.29949099 C-5.96498521 556.31486153 -17.73560346 556.33575954 -29.50624371 556.37037283 C-39.7834769 556.40057975 -50.06066546 556.41970042 -60.33794183 556.42631996 C-65.76336975 556.43018013 -71.18867017 556.43903812 -76.61405659 556.46124464 C-96.77679783 556.54043948 -116.85041901 556.51710092 -136.95057964 554.76636893 C-137.6648923 554.70475085 -138.37920495 554.64313277 -139.11516345 554.57964748 C-150.22369271 553.59040671 -160.6200822 551.72932465 -171.16859722 548.14405447 C-172.86379643 547.5994309 -174.55911417 547.05517614 -176.25453472 546.51124197 C-203.79142761 537.46498353 -224.96706949 522.62476859 -238.95375347 496.85499197 C-255.42487208 462.90173981 -255.32241093 422.78877306 -255.31386089 385.88331228 C-255.31685919 383.2791197 -255.32026324 380.67492756 -255.32403851 378.07073599 C-255.3322778 371.77053778 -255.33509031 365.47034893 -255.33565088 359.17014578 C-255.33612947 354.03591583 -255.33820109 348.90168892 -255.34135151 343.76745993 C-255.35014138 329.1399798 -255.35477375 314.51250695 -255.35402104 299.88502416 C-255.35398108 299.09958131 -255.35394112 298.31413846 -255.35389996 297.50489432 C-255.35385908 296.71846728 -255.35381819 295.93204025 -255.35377607 295.12178209 C-255.35337055 282.40735677 -255.36292088 269.69296118 -255.37703832 256.97854444 C-255.39149362 243.85386361 -255.39830345 230.72919719 -255.39744455 217.60450822 C-255.39711561 210.26415424 -255.39972699 202.92383141 -255.4106226 195.58348471 C-255.41984937 189.32837085 -255.42180551 183.07330222 -255.41511317 176.81818441 C-255.41190736 173.6427392 -255.41271378 170.46739572 -255.42046642 167.29195601 C-255.45095953 153.91588435 -255.14081203 140.60803106 -254.26669598 127.26118094 C-254.18759367 126.05229971 -254.10849137 124.84341849 -254.02699202 123.5979045 C-252.0562597 96.01986511 -248.19355406 64.37231006 -230.16859722 42.14405447 C-229.51375347 41.31518728 -228.85890972 40.4863201 -228.18422222 39.63233572 C-203.7761958 10.54758891 -161.04892195 6.25683972 -125.74038982 3.13091666 C-83.8498554 -0.27329116 -41.99561553 -0.10891036 0 0 Z " fill="#1A1A1A" transform="translate(3876.1685972213745,3143.8559455275536)"/>
<path d="M0 0 C16.83 0 33.66 0 51 0 C50.97268799 7.38810059 50.94537598 14.77620117 50.91723633 22.38818359 C50.83742602 46.08545039 50.81203192 69.78245931 50.82046365 93.47984483 C50.82172601 97.16690172 50.82250998 100.85395856 50.82299805 104.54101562 C50.82310325 105.27497589 50.82320845 106.00893615 50.82331683 106.76513763 C50.82387728 118.6160066 50.78577203 130.46644701 50.73312465 142.31718545 C50.67988699 154.4966749 50.66878687 166.67568946 50.6959936 178.85526717 C50.71144967 186.35811513 50.69487845 193.85943851 50.63601431 201.36207749 C50.59425258 207.13612135 50.61140272 212.90889054 50.64941406 218.6829052 C50.65595759 221.03615344 50.64404932 223.38954434 50.61136436 225.74257469 C50.41438694 240.89833546 52.46891717 250.91980713 61.65004957 263.16176534 C63.68837091 265.93735832 65.43592127 268.85304019 67.21484375 271.80078125 C67.84890137 272.83025879 68.48295898 273.85973633 69.13623047 274.92041016 C72.38204967 280.28362255 75.47192754 285.73382408 78.5625 291.1875 C79.96765477 293.65817597 81.37451273 296.12788106 82.78125 298.59765625 C83.13417618 299.21775574 83.48710236 299.83785522 83.85072327 300.47674561 C87.39784056 306.70638085 90.97679664 312.9175022 94.5625 319.125 C95.17681885 320.18871826 95.7911377 321.25243652 96.42407227 322.34838867 C97.66292223 324.49309587 98.90193541 326.6377088 100.14111328 328.78222656 C103.26324605 334.18670645 106.38141204 339.59347412 109.5 345 C110.74998122 347.1666775 111.99998121 349.33334417 113.25 351.5 C130.75 381.83333333 148.25 412.16666667 165.75 442.5 C166.36963623 443.57403076 166.98927246 444.64806152 167.62768555 445.75463867 C168.86875254 447.90583224 170.10980093 450.05703655 171.35083008 452.20825195 C174.26498344 457.25962999 177.17931818 462.3109031 180.09432983 467.36178589 C181.12673478 469.15066918 182.15907956 470.93958717 183.19140625 472.72851562 C184.48685948 474.97337636 185.7824257 477.2181719 187.078125 479.46289062 C190.06307914 484.63571774 193.04245317 489.81145009 196 495 C198.81784037 492.4916488 200.45723723 489.70077062 202.30078125 486.42578125 C202.94096191 485.2955957 203.58114258 484.16541016 204.24072266 483.00097656 C204.74675018 482.0999823 204.74675018 482.0999823 205.26300049 481.18078613 C207.05472933 477.99120661 208.86275894 474.81086847 210.66796875 471.62890625 C211.03390137 470.98279388 211.39983398 470.33668152 211.77685547 469.67098999 C215.17855793 463.66939065 218.64093025 457.70414889 222.125 451.75 C222.97940674 450.28856567 222.97940674 450.28856567 223.85107422 448.79760742 C224.99583897 446.84041327 226.14101839 444.8834616 227.28662109 442.92675781 C230.17381178 437.9949194 233.05647417 433.06044184 235.9375 428.125 C236.51258301 427.13983398 237.08766602 426.15466797 237.68017578 425.13964844 C241.97612199 417.7727766 246.2428357 410.38933859 250.5 403 C258.19128838 389.64990822 265.9548291 376.34266958 273.72949219 363.04101562 C280.35021812 351.71147109 286.94935227 340.37023397 293.5 329 C300.04475417 317.63999572 306.63803456 306.30902316 313.25292969 294.98974609 C316.23294921 289.89006484 319.21039113 284.7888808 322.1875 279.6875 C322.70900635 278.79466309 323.2305127 277.90182617 323.76782227 276.98193359 C324.83341136 275.15619259 325.8854169 273.3224609 326.92421246 271.48134327 C328.4007207 268.92727369 330.01711821 266.52350668 331.71503162 264.11166668 C340.68139371 250.86275953 341.55704622 239.67387108 341.34057617 223.9855957 C341.3473512 221.52960494 341.35896508 219.07362355 341.375 216.61767578 C341.39854235 211.37044239 341.3891011 206.12442546 341.34822655 200.87734413 C341.28919235 193.29149956 341.29185403 185.70661645 341.30866591 178.12060585 C341.33431889 165.80762306 341.31137689 153.49524412 341.25708008 141.18237305 C341.20450108 129.23504358 341.17530274 117.2880265 341.17700195 105.34057617 C341.17714751 104.23242094 341.17714751 104.23242094 341.17729601 103.10187874 C341.17792534 99.39498689 341.17900856 95.68809534 341.18031728 91.98120368 C341.1905569 61.32038594 341.11250226 30.66068341 341 0 C357.83 0 374.66 0 392 0 C392.33180277 31.88165193 392.60832222 63.76160382 392.76597994 95.64446743 C392.78473652 99.42378861 392.80415174 103.20310614 392.82397461 106.98242188 C392.82790927 107.73469333 392.83184392 108.48696479 392.83589781 109.26203236 C392.90085055 121.38136264 393.01893692 133.49960602 393.15729194 145.61829534 C393.29846125 158.08917941 393.3810678 170.55950148 393.41132742 183.03115153 C393.42991528 190.021727 393.47433323 197.01003237 393.58595085 203.99979401 C394.43381247 258.69932948 394.43381247 258.69932948 378.94676399 279.26665497 C375.43004781 284.20428416 372.78211674 289.62666166 370 295 C368.84995864 297.13996183 367.69674176 299.27822296 366.5390625 301.4140625 C364.07816605 305.98272845 361.63830196 310.56192267 359.2109375 315.1484375 C352.31319813 328.16574464 345.19289888 340.97898089 337.49462891 353.54296875 C334.80703325 357.96112666 332.18756873 362.41950755 329.5625 366.875 C328.47006415 368.72656962 327.37761621 370.57813211 326.28515625 372.4296875 C325.74262207 373.34975586 325.20008789 374.26982422 324.64111328 375.21777344 C321.93027191 379.8135408 319.21492427 384.40664384 316.5 389 C315.41664473 390.83332037 314.3333114 392.66665371 313.25 394.5 C311.08333333 398.16666667 308.91666667 401.83333333 306.75 405.5 C305.94598755 406.86064575 305.94598755 406.86064575 305.12573242 408.2487793 C304.03997961 410.0861946 302.95420479 411.92359689 301.8684082 413.76098633 C299.19691439 418.28176042 296.52577545 422.80274334 293.85546875 427.32421875 C287.57023827 437.96554957 281.27518174 448.60101139 274.9730835 459.23236084 C268.83166666 469.59295994 262.70131144 479.96004974 256.57666016 490.33056641 C254.97200732 493.04739423 253.36694036 495.76397694 251.76171875 498.48046875 C251.22361572 499.39111084 250.6855127 500.30175293 250.13110352 501.23999023 C249.0471102 503.07422828 247.96296403 504.90837601 246.87866211 506.74243164 C244.14153879 511.37274223 241.40762388 516.00489517 238.6796875 520.640625 C233.42456393 529.56490121 228.1430358 538.47069882 222.75 547.3125 C222.05076416 548.46057129 222.05076416 548.46057129 221.33740234 549.63183594 C218.12537169 554.87462831 218.12537169 554.87462831 217 556 C215.55710213 556.09295815 214.10970215 556.11746513 212.66381836 556.11352539 C211.7429393 556.11344986 210.82206024 556.11337433 209.87327576 556.11329651 C208.87224319 556.10813522 207.87121063 556.10297394 206.83984375 556.09765625 C205.82024063 556.0962413 204.80063751 556.09482635 203.75013733 556.09336853 C200.47922893 556.08775097 197.20838787 556.0751955 193.9375 556.0625 C191.72591244 556.05748726 189.51432382 556.05292396 187.30273438 556.04882812 C181.86846643 556.03777584 176.43423803 556.02102063 171 556 C163.30140846 542.68478386 155.62245425 529.35895008 148 516 C142.85683542 506.98635441 137.69232464 497.98545444 132.5 489 C126.96769373 479.42619842 121.46969438 469.83330682 115.98974609 460.22949219 C110.5709155 450.73408609 105.11750879 441.25903839 99.64672852 431.79345703 C94.7095099 423.24510815 89.81317064 414.67382616 84.92437744 406.0977478 C80.29124313 397.97303082 75.60615213 389.88054856 70.875 381.8125 C65.45027022 372.55954681 60.1832495 363.22601817 54.96386719 353.85595703 C51.37653576 347.42638635 47.71654677 341.05061407 43.95678711 334.72070312 C40.00094362 328.04387974 36.15577834 321.30448071 32.3125 314.5625 C26.34682664 304.09768149 20.35130373 293.65119176 14.31176758 283.22875977 C13.18741968 281.28513201 12.07727627 279.33320279 10.98300838 277.3724823 C9.04442838 273.96491609 9.04442838 273.96491609 6.71583652 270.78460693 C-1.62211609 258.62032695 -1.22350801 246.82745798 -1.02172852 232.5 C-1.01918561 229.9558013 -1.02062312 227.41159601 -1.02571106 224.86740112 C-1.02774948 219.42035401 -1.0025071 213.97456013 -0.95157051 208.527771 C-0.87797887 200.65322816 -0.85494245 192.77915269 -0.84367859 184.90430331 C-0.82405028 172.12375984 -0.76434654 159.34373756 -0.67895508 146.56347656 C-0.59616272 134.15920594 -0.53254628 121.75507761 -0.49438477 109.35058594 C-0.490838 108.20092401 -0.490838 108.20092401 -0.48721958 107.02803659 C-0.47547303 103.18247725 -0.46409995 99.33691691 -0.45291245 95.4913559 C-0.35982809 63.66044185 -0.19403178 31.83049855 0 0 Z " fill="#1A1A1A" transform="translate(4068,3144)"/>
<path d="M0 0 C4.19325677 0.00636255 8.38651472 0.00684732 12.57977557 0.00802541 C20.47671053 0.01110147 28.37363122 0.0192632 36.27055997 0.0293749 C45.27943066 0.04065357 54.28830213 0.04607573 63.29717815 0.05107033 C81.78877161 0.0614501 100.28034556 0.07974766 118.7719295 0.10139394 C118.7719295 17.59139394 118.7719295 35.08139394 118.7719295 53.10139394 C109.56234332 53.12326772 109.56234332 53.12326772 100.16670489 53.14558339 C79.81071613 53.19607073 59.45480228 53.26254353 39.09888816 53.33710885 C26.76521993 53.38190244 14.43157952 53.42135414 2.09785724 53.44782948 C-8.66349406 53.4709436 -19.4247561 53.50448877 -30.18603641 53.5500955 C-35.87379166 53.57384847 -41.56145949 53.59269377 -47.24926305 53.59900784 C-100.48484623 51.22940101 -100.48484623 51.22940101 -148.2280705 70.10139394 C-168.83956696 95.11948619 -166.3799981 135.70819669 -166.37333417 166.10481191 C-166.37579001 168.83637556 -166.37970594 171.56793674 -166.38351178 174.2994988 C-166.39177406 180.92442546 -166.39456464 187.54934322 -166.39512416 194.17427461 C-166.3956016 199.56894925 -166.39766764 204.963621 -166.40082479 210.35829473 C-166.40962066 225.7038517 -166.41424604 241.04940171 -166.41349431 256.39496122 C-166.41343438 257.63264835 -166.41343438 257.63264835 -166.41337323 258.89533925 C-166.41331191 260.13456467 -166.41331191 260.13456467 -166.41324935 261.39882495 C-166.41284358 274.76420997 -166.42239862 288.12956674 -166.4365116 301.4949436 C-166.45093857 315.26809585 -166.45777827 329.04123437 -166.45691782 342.81439435 C-166.45658794 350.52685237 -166.4592422 358.23928078 -166.47009587 365.95173192 C-166.47928473 372.52258671 -166.48130855 379.09339848 -166.47458645 385.66425698 C-166.47136238 389.0050157 -166.47223886 392.34562633 -166.4799397 395.6863873 C-167.34694752 444.14130402 -167.34694752 444.14130402 -147.610883 487.00764394 C-122.53490986 510.52386755 -69.48436857 504.57098103 -37.90182781 504.60750484 C-32.37392167 504.61702623 -26.84609218 504.64323797 -21.31823468 504.66751027 C-10.89983847 504.71080684 -0.48145744 504.7395781 9.93700069 504.76283365 C21.81899165 504.79008554 33.70090406 504.83398274 45.58283842 504.87912238 C69.97917054 504.97143958 94.37549561 505.04116405 118.7719295 505.10139394 C118.7719295 521.93139394 118.7719295 538.76139394 118.7719295 556.10139394 C92.00529151 556.16938798 65.23872457 556.22453594 38.47202182 556.25683045 C26.04087212 556.27223085 13.6097803 556.29318808 1.17866778 556.3277123 C-9.66945692 556.35782554 -20.51753966 556.37701839 -31.36570501 556.38365942 C-37.09774995 556.38753495 -42.82967494 556.39649645 -48.56168103 556.41858411 C-149.41532091 556.7919984 -149.41532091 556.7919984 -185.2280705 521.25764394 C-206.28010287 499.50567187 -213.55001914 471.12981247 -216.9155705 441.78889394 C-217.03496991 440.7598998 -217.15436933 439.73090566 -217.2773869 438.67072988 C-219.31688598 419.43273425 -219.37811653 400.07494744 -219.37333417 380.75105214 C-219.3763352 378.2923114 -219.37973986 375.83357112 -219.38351178 373.37483144 C-219.39135823 367.44381343 -219.39456235 361.51280476 -219.39512416 355.58178262 C-219.39560403 350.74469738 -219.39768183 345.90761535 -219.40082479 341.07053113 C-219.40960739 327.26673722 -219.41424817 313.462951 -219.41349431 299.65915427 C-219.41345436 298.91910459 -219.4134144 298.17905491 -219.41337323 297.41657948 C-219.41333235 296.67559462 -219.41329147 295.93460975 -219.41324935 295.17117079 C-219.41284402 283.19756081 -219.42239141 271.22398243 -219.4365116 259.25038157 C-219.45099509 246.86796798 -219.45777522 234.48556969 -219.45691782 222.10314745 C-219.45658984 215.18690806 -219.45921587 208.27070212 -219.47009587 201.35447049 C-219.54455541 151.55699081 -219.54455541 151.55699081 -218.32694745 130.85603261 C-218.28726295 130.17803566 -218.24757845 129.5000387 -218.20669138 128.80149639 C-216.04625896 93.39718752 -210.26920542 56.4124597 -182.85941815 31.50520253 C-178.95799915 28.14795032 -174.73970631 25.54761707 -170.2280705 23.10139394 C-168.83008222 22.32215566 -168.83008222 22.32215566 -167.40385175 21.52717519 C-140.36841372 7.19731017 -107.90946811 4.82847276 -77.9155705 2.47639394 C-77.12633191 2.4137737 -76.33709332 2.35115346 -75.52393842 2.28663564 C-50.35997252 0.31777362 -25.2264121 -0.04492114 0 0 Z " fill="#1A1A1A" transform="translate(1471.2280704975128,3143.8986060619354)"/>
<path d="M0 0 C130.02 0 260.04 0 394 0 C394 18.15 394 36.3 394 55 C337.57 55 281.14 55 223 55 C223 220.33 223 385.66 223 556 C205.18 556 187.36 556 169 556 C169 390.67 169 225.34 169 55 C113.23 55 57.46 55 0 55 C0 36.85 0 18.7 0 0 Z " fill="#1A1A1A" transform="translate(2646,3144)"/>
<path d="M0 0 C16.83 0 33.66 0 51 0 C51.06794974 52.75708995 51.12159918 105.51416932 51.15319599 158.27129443 C51.15694769 164.51281289 51.1608307 170.75433127 51.16479492 176.99584961 C51.16558185 178.23831958 51.16636878 179.48078955 51.16717956 180.76091013 C51.18020067 200.82636371 51.20383618 220.89179127 51.23145839 240.95722946 C51.2596046 261.57670414 51.27619565 282.19616528 51.28226548 302.81565839 C51.28636289 315.5185766 51.29926033 328.22142121 51.3237494 340.92431674 C51.33972062 349.65869676 51.34437487 358.39303925 51.34050413 367.12743279 C51.33860012 372.15171187 51.34132506 377.1758632 51.35761642 382.20011902 C51.50575295 430.35710873 50.91789332 485.41471674 15.3125 522.1875 C-18.55594291 555.83841919 -76.98338102 556.09501366 -121.5078125 556.203125 C-122.31728207 556.20595238 -123.12675163 556.20877975 -123.96075058 556.21169281 C-128.26452692 556.22656603 -132.5682709 556.23586402 -136.87207031 556.24023438 C-140.33474556 556.24456884 -143.79716457 556.25828002 -147.25976562 556.28125 C-266.1567252 557.05321612 -266.1567252 557.05321612 -305.6875 519.8125 C-333.52745248 491.0097826 -338.48662513 442.31804268 -338 404 C-331.86672395 404.60319814 -325.93624715 405.51777997 -319.9140625 406.8125 C-318.67866226 407.07317261 -318.67866226 407.07317261 -317.41830444 407.33911133 C-315.69526909 407.70353939 -313.97266596 408.07001666 -312.25048828 408.43847656 C-309.61198475 409.00278362 -306.97215129 409.56049737 -304.33203125 410.1171875 C-302.65096089 410.47357754 -300.96996842 410.83033518 -299.2890625 411.1875 C-298.1078331 411.43753784 -298.1078331 411.43753784 -296.90274048 411.69262695 C-293.87472998 412.34194192 -290.94061283 413.01979572 -288 414 C-287.93006836 414.74870361 -287.86013672 415.49740723 -287.78808594 416.26879883 C-286.0466623 434.54954749 -284.29206189 452.50337603 -278.0625 469.875 C-277.83393311 470.5237207 -277.60536621 471.17244141 -277.36987305 471.84082031 C-273.68736735 481.38214571 -264.78798415 485.83727066 -256 490 C-234.45884608 499.19716834 -210.17987182 503.03380189 -187 505 C-185.89285645 505.09498779 -184.78571289 505.18997559 -183.64501953 505.2878418 C-171.6809419 506.17415731 -159.71484153 506.18611831 -147.72265625 506.18530273 C-144.16654209 506.18747463 -140.61074652 506.20565226 -137.0546875 506.22460938 C-116.88154101 506.27470731 -96.63613078 505.4557248 -76.6875 502.25 C-75.09107666 501.99621582 -75.09107666 501.99621582 -73.46240234 501.73730469 C-55.6834887 498.74893974 -24.08878623 493.33450835 -12.54296875 478.07421875 C2.3852795 451.96105942 -0.54535404 416.02123814 -0.56726015 387.08304584 C-0.56789151 381.87345977 -0.55119466 376.66392306 -0.53674316 371.45436096 C-0.51409098 362.45733191 -0.50209537 353.46034122 -0.49761391 344.46328545 C-0.49111887 331.45552078 -0.4681231 318.44782508 -0.44127061 305.4400884 C-0.3981307 284.32912793 -0.36809114 263.21817038 -0.34643555 242.10717773 C-0.32538733 221.61595219 -0.29807888 201.12475053 -0.26245117 180.63354492 C-0.26025235 179.36765289 -0.25805352 178.10176086 -0.25578807 176.79750847 C-0.24471746 170.4460598 -0.23352483 164.09461134 -0.22227156 157.74316299 C-0.12926788 105.16212855 -0.05840321 52.58108331 0 0 Z " fill="#1A1A1A" transform="translate(380,3144)"/>
<path d="M0 0 C0.76828125 -0.01160156 1.5365625 -0.02320313 2.328125 -0.03515625 C8.30506563 -0.00466165 12.81598339 1.12459001 17.78515625 4.63671875 C21.89536709 9.22456877 23.72066208 14.53200986 25.75463867 20.24438477 C29.14917148 29.74137428 32.67375805 38.42869354 42 43.375 C50.26105192 45.79662315 56.80861054 44.14775875 64.4375 40.625 C65.26934814 40.26027588 66.10119629 39.89555176 66.95825195 39.51977539 C70.37880844 38.01987192 73.77789957 36.47702396 77.171875 34.91796875 C82.41552157 32.61369549 86.44099442 31.46198189 92 33.375 C99.39295792 36.76706305 105.26251683 42.61096064 110 49.125 C112.29888738 56.59638397 111.87318999 63.86887864 108.35546875 70.828125 C107.90816406 71.66859375 107.46085937 72.5090625 107 73.375 C105.72022684 75.88178687 104.48230225 78.40711867 103.25 80.9375 C102.77324829 81.85752808 102.77324829 81.85752808 102.28686523 82.79614258 C99.91529712 87.64587339 99.61856086 91.10671733 100 96.375 C102.28977231 102.84023946 107.30789196 109.24534087 113.4375 112.5 C116.82832414 114.00997637 120.32598935 115.22027047 123.81591797 116.48022461 C139.74704168 122.26052761 139.74704168 122.26052761 144.7109375 128.5390625 C146.40834088 132.27334993 146.40085724 135.66901274 146.3125 139.6875 C146.31733398 140.7693457 146.31733398 140.7693457 146.32226562 141.87304688 C146.20815403 153.43981344 146.20815403 153.43981344 142.76464844 158.01708984 C136.71110618 163.82946257 128.27913976 166.19108178 120.60351562 169.14257812 C112.93322498 172.21335306 106.11701103 175.569608 101.5 182.6875 C99.66775235 192.53583114 102.27102201 199.16531258 106.17578125 208.10546875 C114.01065221 226.10427843 114.01065221 226.10427843 111.375 234.32421875 C108.91560058 240.08843614 104.95709689 243.68055986 100 247.375 C99.41992188 247.81199219 98.83984375 248.24898437 98.2421875 248.69921875 C93.65060034 251.74248001 89.31035978 252.01971295 84 251.375 C79.90624238 250.23388413 76.00366763 248.70741973 72.0625 247.125 C71.04220703 246.72925781 70.02191406 246.33351563 68.97070312 245.92578125 C60.98108471 242.81559157 60.98108471 242.81559157 57.19482422 241.11523438 C56.32486816 240.73173828 55.45491211 240.34824219 54.55859375 239.953125 C53.79732178 239.6015332 53.0360498 239.24994141 52.25170898 238.88769531 C49.18615985 238.1896954 47.74793472 238.92135847 45 240.375 C36.12742733 247.117234 28.40289818 255.3285832 26 266.375 C24.26343727 272.49662615 22.66811892 276.91906831 18 281.375 C8.57427753 286.25617771 -0.318486 285.97942767 -10.54296875 284.30078125 C-15.46537162 282.44607619 -18.06172391 280.13721739 -20.50463867 275.54907227 C-22.07545554 272.05890952 -23.55523771 268.5441825 -25 265 C-30.0916592 252.03249895 -30.0916592 252.03249895 -39.875 242.5 C-53.87601663 237.45963401 -66.4158106 245.52213779 -79 251.375 C-79.66 251.705 -80.32 252.035 -81 252.375 C-83.171875 252.61328125 -83.171875 252.61328125 -85.75 252.6875 C-86.59046875 252.72488281 -87.4309375 252.76226563 -88.296875 252.80078125 C-95.08437289 251.73165225 -100.14303025 245.68900918 -104.875 241.0625 C-105.90753906 240.1044043 -105.90753906 240.1044043 -106.9609375 239.12695312 C-107.610625 238.49080078 -108.2603125 237.85464844 -108.9296875 237.19921875 C-109.51991699 236.63291748 -110.11014648 236.06661621 -110.71826172 235.4831543 C-112.63892068 232.32412761 -112.35076828 230.0152434 -112 226.375 C-110.8984375 222.96923828 -110.8984375 222.96923828 -109.375 219.4453125 C-108.82799661 218.14198096 -108.28112572 216.8385938 -107.734375 215.53515625 C-106.87004756 213.51692228 -106.00047214 211.50108872 -105.12695312 209.48681641 C-99.77205854 197.39701747 -99.77205854 197.39701747 -100.8828125 184.44921875 C-101.29273438 183.66160156 -101.70265625 182.87398437 -102.125 182.0625 C-102.71667969 180.86173828 -102.71667969 180.86173828 -103.3203125 179.63671875 C-106.85444971 174.87796191 -112.11648862 172.74224374 -117.53515625 170.71875 C-118.75654297 170.25339844 -119.97792969 169.78804687 -121.23632812 169.30859375 C-123.15308048 168.58867523 -125.07095126 167.87184992 -126.98950195 167.15673828 C-128.86175906 166.45586779 -130.7297647 165.74367351 -132.59765625 165.03125 C-134.26066772 164.40959961 -134.26066772 164.40959961 -135.95727539 163.77539062 C-139.17816346 162.29300164 -141.49580075 160.88972827 -144 158.375 C-144.69116211 155.9206543 -144.69116211 155.9206543 -144.77734375 153.19921875 C-144.81537109 152.20599609 -144.85339844 151.21277344 -144.89257812 150.18945312 C-144.90740234 149.15755859 -144.92222656 148.12566406 -144.9375 147.0625 C-144.97939453 146.04220703 -145.02128906 145.02191406 -145.06445312 143.97070312 C-145.26062676 137.22668941 -145.19006345 131.4976066 -141.18359375 125.78515625 C-136.27513108 122.06917899 -130.75797291 120.07250879 -125.0625 117.8125 C-110.6117921 112.40055739 -110.6117921 112.40055739 -100.75 101.0625 C-98.79175461 94.045454 -100.23062487 88.70750451 -103.125 82.3125 C-103.76330046 80.82433866 -104.40131543 79.33605483 -105.0390625 77.84765625 C-106.00192748 75.64566325 -106.96897444 73.44554351 -107.93652344 71.24560547 C-108.80566606 69.25299457 -109.65388465 67.25247301 -110.5 65.25 C-111.0053125 64.09242187 -111.510625 62.93484375 -112.03125 61.7421875 C-113.2292325 57.57823219 -113.32349497 55.52616683 -112 51.375 C-109.67369073 48.30150606 -106.98592058 45.70422861 -104.1875 43.0625 C-103.46240234 42.34771484 -102.73730469 41.63292969 -101.99023438 40.89648438 C-97.49380882 36.53170165 -94.50454478 33.67766402 -88.12109375 32.90625 C-81.29035794 33.06273239 -75.23257862 36.19860491 -69.0625 38.875 C-55.93573926 44.59288805 -55.93573926 44.59288805 -42.01171875 43.5625 C-31.9229281 38.40789099 -29.74898222 31.16312116 -26.18359375 20.7890625 C-23.34738993 12.60806535 -20.99695823 5.9646186 -12.89453125 1.765625 C-8.60505765 -0.00488312 -4.58957799 -0.06930571 0 0 Z M-20 101.375 C-20.84820313 101.7875 -21.69640625 102.2 -22.5703125 102.625 C-33.29779801 108.39881483 -39.81800379 117.09415308 -44 128.375 C-44.433125 129.468125 -44.86625 130.56125 -45.3125 131.6875 C-47.98652834 146.03001566 -44.96040233 158.33511711 -37 170.375 C-29.66162793 179.51245683 -19.49643371 185.29809398 -8.1875 188.0625 C5.59719953 189.41394113 17.99878465 186.86356082 29.37890625 178.66015625 C38.81133666 170.85565799 45.76681757 159.70682434 47 147.375 C47.91715766 134.73612007 43.94048471 123.64041869 36.875 113.25 C28.78013024 104.31772992 17.15636624 97.86810044 5.05859375 97.13671875 C-4.03347814 96.91789395 -11.73220499 97.14865112 -20 101.375 Z " fill="#1A1A1A" transform="translate(1873,1685.625)"/>
<path d="M0 0 C16.5 0 33 0 50 0 C50 183.48 50 366.96 50 556 C33.5 556 17 556 0 556 C0 372.52 0 189.04 0 0 Z " fill="#1A1A1A" transform="translate(567,3144)"/>
</svg>
